<?xml version="1.0" encoding="UTF-8"?>
<svg width="450px" height="451px" viewBox="0 0 450 451" version="1.1" xmlns="http://www.w3.org/2000/svg" xmlns:xlink="http://www.w3.org/1999/xlink">
    <!-- Generator: sketchtool 50.2 (55047) - http://www.bohemiancoding.com/sketch -->
    <title>233AF5C1-D1A7-4F25-9C28-9DCEDFEC6A31</title>
    <desc>Created with sketchtool.</desc>
    <defs>
        <rect id="path-1" x="0" y="0" width="442" height="442" rx="100"></rect>
        <filter x="-1.9%" y="-1.0%" width="103.8%" height="104.1%" filterUnits="objectBoundingBox" id="filter-2">
            <feOffset dx="0" dy="5" in="SourceAlpha" result="shadowOffsetOuter1"></feOffset>
            <feGaussianBlur stdDeviation="2" in="shadowOffsetOuter1" result="shadowBlurOuter1"></feGaussianBlur>
            <feColorMatrix values="0 0 0 0 0   0 0 0 0 0   0 0 0 0 0  0 0 0 0.5 0" type="matrix" in="shadowBlurOuter1"></feColorMatrix>
        </filter>
    </defs>
    <g id="Page-1" stroke="none" stroke-width="1" fill="none" fill-rule="evenodd">
        <g id="Product-Page" transform="translate(-24.000000, -362.000000)">
            <g id="Group-4" transform="translate(28.000000, 362.000000)">
                <g id="Rectangle-5">
                    <use fill="black" fill-opacity="1" filter="url(#filter-2)" xlink:href="#path-1"></use>
                    <use fill="#007BFF" fill-rule="evenodd" xlink:href="#path-1"></use>
                </g>
                <text id="Masterplan" font-family="AvenirNext-Bold, Avenir Next" font-size="48" font-weight="bold" fill="#FFFFFF">
                    <tspan x="73" y="76">Masterplan</tspan>
                </text>
                <path d="M341.279646,134.338383 C393.754832,209.408826 400.666357,329.840564 331.40255,376.119551 C262.935742,421.86602 108.670312,341.868895 65.8184153,318.389296 C22.9665184,294.909697 18.8286179,269.447667 46.612951,220.076386 C102.583161,120.620303 71.8544184,78.8944746 162.394464,134.338383 C204.363549,160.038946 288.804459,59.2679401 341.279646,134.338383 Z" id="Rectangle-2" fill="#FFFFFF"></path>
                <g id="1533717032_tmp_osn-dribbble-3__dragged_" transform="translate(111.000000, 156.000000)" fill-rule="nonzero">
                    <g id="layer101" fill="#233C54">
                        <path d="M60.7813845,218.739343 C60.7813845,214.561599 62.6002915,209.838932 65.7350035,205.97906 C69.3728175,201.528855 74.2103361,198.985881 79.9379581,198.577188 C83.1887706,198.304727 86.2847825,198.84965 92.0898048,200.66606 C94.9923159,201.574265 95.6115183,201.619676 97.5078256,201.120163 C103.003247,199.757855 106.176659,196.624547 111.439879,187.406265 C112.523483,185.499034 113.413587,183.818854 113.413587,183.682623 C113.413587,183.546393 114.26499,181.866213 115.348594,179.913572 C116.974,176.961905 117.167501,176.326162 116.664399,176.00829 C116.161297,175.690418 107.956866,172.148418 97.3917251,167.652802 C93.5604104,166.063443 92.670307,165.47311 91.8189037,163.79293 C90.2708978,160.750443 90.3095979,160.25093 93.4830101,148.444263 C94.0635123,146.309981 95.5728181,140.724519 96.8112229,135.956442 C98.0883278,131.233775 99.6363338,125.466672 100.255536,123.150749 C100.913439,120.880236 101.416541,118.791364 101.416541,118.518902 C101.416541,118.20103 100.178136,118.019389 98.0496277,118.019389 C90.5417988,118.019389 76.9580466,114.886082 65.8124038,110.617517 C62.9485928,109.482261 60.2782826,108.437825 59.9299812,108.256184 C59.5042796,108.074543 59.2333785,108.119953 59.2333785,108.437825 C59.2333785,109.118979 56.9887699,113.432953 55.6342647,115.294774 C53.5831568,118.0648 49.4809411,122.060902 45.1078243,125.466672 C41.0443087,128.64539 35.7036881,132.550672 35.4327871,132.550672 C35.3553868,132.550672 33.4203794,133.91298 31.0983705,135.547749 C27.3831562,138.226954 26.1060513,139.543852 19.7205267,147.172775 L12.5609992,155.800725 L10.2002902,152.939878 C8.92318527,151.350519 5.98197397,147.626878 3.6986652,144.675211 C-0.867952348,138.862698 -1.02275294,138.226954 2.22805955,138.590237 C3.5438646,138.771878 4.27916743,139.27139 5.98197397,141.042391 C8.22658259,143.449134 9.85198883,144.130288 12.1739978,143.585365 C13.8381041,143.176673 15.8118117,140.724519 29.6277648,121.879261 C45.804427,99.7190551 49.0552394,95.4050805 50.254944,94.4968754 C51.1837476,93.8157215 53.5831568,93.724901 79.8218576,93.724901 L108.382567,93.724901 L109.814473,89.4109264 C110.588476,87.0495929 111.59468,83.9616953 112.020381,82.5993876 C113.374887,78.5124643 113.065285,77.1047463 108.034266,65.8884124 C106.989362,63.5724892 105.983158,61.6652583 105.828358,61.7106686 C105.634857,61.7560788 102.577545,64.8439764 99.0171314,68.5676176 C95.4567177,72.3366691 92.1285049,75.7878488 91.5867028,76.2873616 L90.580499,77.1955668 L80.6345608,74.9250539 C75.1391396,73.6535666 70.2629209,72.6091307 69.7985191,72.6091307 C69.3341173,72.6091307 68.8697156,72.4274896 68.7536151,72.2004383 C68.6375147,72.0187973 68.0183123,71.7009255 67.3991099,71.5646947 C66.7799075,71.4284639 64.8449001,70.1569767 63.1420936,68.7492587 C57.7240727,64.4352841 57.6853726,64.4352841 51.3772484,64.4352841 L45.804427,64.4352841 L43.9468198,59.8034377 C42.9019158,57.215053 40.6960073,51.7658219 39.0319009,47.6788986 C37.3677945,43.5919753 36.0906896,40.1407957 36.2454902,39.9591546 C36.5163913,39.6412828 50.8354463,39.5504623 58.575476,39.8229239 L63.9160965,40.0045649 L65.5028026,43.9098472 C66.3542059,46.0895396 68.1731129,50.5851552 69.5276181,53.9001041 L72.0044276,59.8942582 L78.0029506,59.8942582 L84.0014737,59.8942582 L84.0014737,62.1647712 L84.0014737,64.4352841 L77.2289477,64.4352841 C70.3790214,64.4352841 68.1731129,65.0256175 73.0880318,65.5705406 C82.0277661,66.524156 87.7940883,67.2053099 88.5293911,67.3869509 C89.2259938,67.5685919 90.4643985,65.9338226 96.7338226,56.4430786 L104.125551,45.2267447 L104.125551,42.4567189 C104.125551,39.6412828 103.235448,35.2364877 102.500145,34.1012313 C102.190544,33.6925389 101.958343,33.6925389 101.571341,34.0104108 C101.30044,34.2828723 100.255536,34.4645133 99.2493323,34.3736928 C96.6951225,34.1920518 95.9985198,32.9659748 95.7276187,28.1524874 C95.534118,24.9737693 95.4180176,24.4742564 94.7988152,24.4742564 C94.3731135,24.4742564 94.0635123,24.2472051 94.0635123,23.9747436 C94.0635123,23.2935897 96.0372199,17.5264868 96.4242214,17.026974 C96.6177222,16.7999227 95.9985198,15.800897 95.0310161,14.7110508 C93.3282095,12.8946405 93.2895094,12.7584097 93.2895094,10.0337942 C93.2895094,7.44540941 93.4056098,7.03671709 94.5666143,5.53817855 C95.6889186,4.13046053 96.1533204,3.85799898 98.0109275,3.67635794 C100.681238,3.44930665 101.958343,4.17587079 104.125551,7.21835812 C105.054355,8.48984537 107.066762,10.5787173 108.653468,11.8047943 C113.839288,15.8917175 113.877988,18.5709228 108.924369,24.2472051 C107.028062,26.4268976 106.137959,27.7892053 106.254059,28.2433079 C106.679761,29.5147951 109.388771,31.6490773 113.452287,33.9195902 C115.658195,35.1910775 118.405906,37.0528981 119.56691,38.0519238 L121.695419,39.9137444 L139.845788,39.9137444 L157.996158,39.9137444 L159.118462,41.2306419 C160.434267,42.8200009 160.434267,42.5929497 159.466764,52.4469758 C159.079762,56.7155401 158.61536,62.3464122 158.49926,64.9347969 C158.383159,67.5231817 158.112258,71.1105921 157.880058,72.8815922 C157.531756,75.3337462 157.570456,77.059336 157.918758,79.9201823 C158.808861,86.9133621 158.808861,86.8679519 158.034858,88.0032084 C157.609156,88.5935417 156.448152,89.4563366 155.441948,89.9104392 L153.623041,90.7278239 L154.242244,89.5471572 C154.822746,88.5481315 154.822746,88.1394391 154.397044,86.2776185 C153.739142,83.3259517 153.700441,83.3259517 152.732938,84.960721 C152.268536,85.7781057 151.494533,86.5046698 151.030131,86.5954903 C150.565729,86.6863109 150.178728,86.6863109 150.178728,86.5500801 C150.178728,86.4592596 150.875331,84.7336697 151.765434,82.6902081 C152.887738,80.0110028 153.39084,78.1945925 153.545641,76.1965411 C153.739142,73.6989769 153.700441,73.4719256 153.042539,73.6081563 C152.423337,73.6989769 152.307236,73.4265153 152.191136,71.7009255 C152.152436,70.565669 151.842834,66.0246431 151.533233,61.6198481 C151.223632,57.215053 150.952731,53.2643604 150.952731,52.9010784 C150.952731,52.2653348 149.753026,52.1745142 140.542391,52.1745142 L130.093351,52.1745142 L131.409156,55.5348734 C136.556276,68.8400792 136.788476,83.9162851 132.105758,100.990542 C127.423041,117.928569 119.37341,138.771878 112.523483,151.53216 C111.67208,153.121519 111.052878,154.483827 111.168978,154.574648 C111.478579,154.93793 125.758934,162.975545 126.107235,162.975545 C126.300736,162.975545 126.687738,162.703084 126.919939,162.339802 C128.506645,160.114699 133.189363,158.706981 136.943277,159.342725 C141.703395,160.114699 143.948004,161.431597 149.520825,166.653776 C154.010043,170.922341 156.293351,172.239238 160.318167,173.011213 C162.756276,173.465315 163.994681,173.465315 166.897192,173.011213 C180.287444,170.83152 185.860265,166.790007 197.779911,150.714776 C207.493648,137.591211 210.976661,134.094621 216.510783,132.051159 C219.297193,131.006723 221,130.915903 221,131.869518 C221,132.278211 220.612999,132.550672 219.993796,132.550672 C218.29099,132.550672 215.001477,133.86757 212.718168,135.502339 C209.389955,137.863672 206.100443,141.451083 201.224224,148.080981 C192.555391,159.887648 186.711668,166.381315 181.91285,169.423802 C176.301328,173.056623 166.510191,175.236315 160.163366,174.2827 C156.525552,173.737777 153.506941,172.057597 149.404725,168.197725 C147.585818,166.517546 145.45731,164.610315 144.683307,163.974571 C140.23279,160.523392 133.653764,159.660597 129.667649,161.97652 C127.539141,163.202597 127.19084,163.79293 128.158343,164.428674 C128.467945,164.610315 137.252878,169.741674 147.701918,175.826649 C159.350663,182.638187 167.361594,187.042983 168.406498,187.224624 C171.154209,187.724136 175.179024,189.268085 176.146528,190.13088 L176.997931,190.993675 L175.720826,195.262239 C172.237813,207.114317 169.567502,215.969317 169.257901,216.922933 L168.9096,217.967369 L168.174297,216.968343 C167.477694,216.105548 167.400294,215.333574 167.400294,209.112368 C167.400294,202.482471 167.361594,202.164599 166.27799,199.439983 C165.155685,196.624547 165.116985,196.579137 162.407975,195.39847 C160.898669,194.762727 158.963662,193.899932 158.112258,193.53665 C157.260855,193.173368 155.171047,192.265162 153.468241,191.584008 C151.765434,190.902855 148.475921,189.495137 146.115212,188.496111 C143.793203,187.497085 138.916985,185.408213 135.279171,183.864264 C131.680057,182.320316 126.378136,180.049803 123.514325,178.823726 C120.689215,177.597649 118.289805,176.598623 118.251105,176.689444 C118.173705,176.780264 117.786703,177.552239 117.361002,178.415033 C110.975477,191.674829 106.254059,198.395547 101.455241,200.983932 C98.7075302,202.482471 98.4753293,202.573291 95.0697162,202.34624 C93.0573085,202.210009 90.3095979,201.710496 88.6454915,201.120163 C84.8141768,199.803265 78.6608532,199.621624 75.2939402,200.802291 C67.8248115,203.390676 63.1033934,209.38483 61.9036888,217.831138 C61.3618867,221.6456 60.7813845,222.099702 60.7813845,218.739343 Z M56.8672934,53.7987711 C56.7072929,52.6825003 56.7872931,52.4499438 57.387295,52.4499438 C58.027297,52.4499438 57.9072966,51.984831 56.5472924,48.9615974 L54.9872875,45.473251 L52.5872801,45.473251 C51.2272758,45.473251 50.2272727,45.6592962 50.2272727,45.9383639 C50.2272727,46.5895219 52.5472799,51.8918084 53.547283,53.5197034 C55.0272877,55.9848015 57.2672946,56.1708467 56.8672934,53.7987711 Z" id="Shape"></path>
                        <path d="M162.552646,114.854356 C162.401515,114.501064 162.363733,114.147773 162.439298,114.030009 C162.514863,113.912245 167.08656,113.794481 172.56504,113.735599 C189.151611,113.617835 189.189394,113.617835 189.189394,114.618828 C189.189394,115.384294 187.489176,115.502058 176.003259,115.502058 C167.048778,115.502058 162.703776,115.325412 162.552646,114.854356 Z" id="Shape"></path>
                        <path d="M21.734638,70.2754494 C20.2480746,69.348367 19.2570323,66.8761474 18.7996282,62.8587905 C18.26599,58.355819 18.26599,57.7377641 18.9520962,57.7377641 C19.2570323,57.7377641 19.5238514,57.8702044 19.5619684,58.0909383 C20.1337236,66.0373586 20.8579468,68.6861653 22.6113293,69.3925138 C24.4028288,70.0988623 25.6606901,69.3042203 29.3199231,65.0661294 C31.7594118,62.2407356 33.3222093,60.7838919 34.3894856,60.3865708 C35.6854639,59.9009563 35.914166,59.6360756 35.914166,58.5324061 C35.914166,57.8260576 36.1047511,57.2962963 36.4096871,57.2962963 C36.9433253,57.2962963 39.344697,59.9451031 39.344697,60.5190112 C39.344697,60.6955983 38.7348248,61.5785339 37.9724846,62.4614695 C36.6002722,64.0507535 36.066634,64.0066067 35.837932,62.3290291 C35.723581,61.5343871 35.5711129,61.4902403 34.4657196,61.7992678 C33.5890284,62.0641485 32.1024649,63.4768454 29.8916783,66.0815054 C28.0620618,68.2446976 26.1943283,70.2313026 25.7369241,70.4961833 C24.5934138,71.158385 22.9543824,71.0700914 21.734638,70.2754494 Z" id="Shape"></path>
                        <path d="M46.3260512,31.1958966 C45.9813216,30.7590734 45.9430184,30.4016727 46.2494446,29.9251383 C46.5941742,29.3294704 47.7815759,29.250048 56.169995,29.1309144 C66.6267913,29.0117808 67.6226766,29.2103368 66.7033978,30.9576294 C66.2437584,31.8312757 66.1288486,31.8312757 56.5530278,31.8312757 C48.1646088,31.8312757 46.7856906,31.7518533 46.3260512,31.1958966 Z" id="Shape"></path>
                        <path d="M76.2330294,29.5516575 C75.0057954,28.9571414 58.4764871,8.88078956 58.0162743,7.41736528 C56.7506892,3.39294851 60.4323913,-1.08878835 63.883987,0.237439901 C64.6893593,0.557563962 68.0642529,4.26185667 73.8552635,11.16739 C81.8322847,20.6796478 82.637657,21.777216 82.8294123,23.4693004 C83.3279761,27.8595732 79.6462741,31.2894739 76.2330294,29.5516575 Z M80.8306001,27.8523653 C81.8042119,26.890059 82.0378788,26.3401697 82.0378788,24.7821501 C82.0378788,22.9491858 81.8431564,22.6742411 73.1195941,12.4096411 C64.3960317,2.09921687 64.2013093,1.87009633 62.5656414,1.82427222 C61.2025848,1.77844811 60.7741956,2.00756865 59.8005837,3.29064366 C57.5418041,6.22338654 57.697582,6.49833119 67.1221449,17.6794134 C71.7565374,23.1783063 75.6727024,27.7740801 75.8284803,27.7740801 C76.0232027,27.7740801 75.1296025,26.5846009 74.8959356,26.1263599 C74.1559906,24.476692 75.3394291,23.2241304 76.4298744,22.2160001 C77.792931,20.932925 79.1170432,21.0245733 80.2853774,22.3992965 C81.6094896,23.911492 81.5316006,25.606984 80.090655,27.302476 C79.4675435,28.0356617 78.74184,28.8452966 78.6261142,28.8725602 C76.2947526,29.4218003 79.7401548,28.9521439 80.8306001,27.8523653 Z" id="Shape"></path>
                        <path d="M60.2121456,7.81543661 C59.7684087,7.07742877 59.4356061,6.04421779 59.4356061,5.45381152 C59.4725841,3.87939479 60.5819263,2.25577754 61.9131369,1.91137388 C62.9115449,1.66537127 63.2813256,1.86217336 64.2427555,3.09218643 C65.536988,4.86340525 65.6109442,5.35541048 64.6125362,7.52023348 C63.983909,8.84864759 63.6880844,9.09465021 62.4308299,9.09465021 C61.2845097,9.09465021 60.8037947,8.79944707 60.2121456,7.81543661 Z" id="Shape"></path>
                        <path d="M29.2992424,10.9135802 L29.2992424,3.63786008 L32.400164,7.32008431 C34.0846152,9.36083509 36.9175559,12.643782 38.6785731,14.5958045 L41.8560606,18.1893004 L35.5776515,18.1893004 L29.2992424,18.1893004 L29.2992424,10.9135802 Z" id="Shape"></path>
                    </g>
                    <g id="layer102" transform="translate(0.000000, 3.000000)" fill="#D11D34">
                        <path d="M60.2727273,215.724519 C60.2727273,211.51938 62.0894528,206.765745 65.2204053,202.880562 C68.8538564,198.401175 73.6855733,195.841526 79.4063261,195.430153 C82.6532398,195.155905 85.7455386,195.704401 91.5435988,197.532723 C94.442629,198.446883 95.0610887,198.492591 96.9551217,197.989803 C102.443952,196.618562 105.613558,193.464708 110.870466,184.185978 C111.952771,182.26624 112.841807,180.575043 112.841807,180.437919 C112.841807,180.300795 113.692189,178.609598 114.774494,176.644152 C116.166028,174.130211 116.552565,173.033218 116.204682,172.75897 C115.895452,172.53043 115.895452,172.393305 116.166028,172.393305 C117.248333,172.393305 117.518909,173.627422 116.784488,175.181495 C110.213353,188.756781 105.690866,195.247321 100.897803,197.852679 C98.1533875,199.361044 97.9214651,199.45246 94.5199364,199.22392 C92.5099422,199.086796 89.765527,198.584007 88.1034164,197.989803 C84.2766967,196.66427 78.1307528,196.481438 74.7678779,197.669847 C67.307707,200.275205 62.5919514,206.308665 61.3936856,214.810359 C60.8525333,218.649833 60.2727273,219.106913 60.2727273,215.724519 Z" id="Shape"></path>
                        <path d="M162.016739,192.378168 C156.217205,189.627746 153.785142,188.573417 153.298729,188.573417 C152.887149,188.573417 153.672893,185.135389 155.768208,177.89261 C155.805625,177.663409 158.31252,178.946939 161.268412,180.734714 C164.26172,182.522488 167.105363,184.03522 167.629192,184.03522 C168.452352,184.126901 168.452352,184.126901 167.741441,184.310263 C166.993114,184.493624 166.61895,185.364591 166.244787,187.885812 C166.169954,188.390056 165.90804,189.627746 165.683542,190.636234 C165.459044,191.644722 165.234545,192.653211 165.234545,192.882413 C165.159713,193.661699 164.486218,193.524178 162.016739,192.378168 Z" id="Shape"></path>
                        <path d="M159.709235,172.166632 C156.368927,171.661546 153.106301,169.778951 149.144541,166.01376 C147.319024,164.314833 145.18278,162.38632 144.405964,161.743483 C139.939274,158.253794 133.33634,157.381372 129.335738,159.723137 C128.170515,160.411891 127.238336,161.192479 127.277177,161.467981 C127.354858,161.881234 127.121813,161.881234 126.46152,161.513898 L125.568182,161.008811 L126.578042,160.090472 C129.452261,157.381372 132.714887,156.371199 136.637807,157.059953 C141.415224,157.840541 143.667989,159.172133 149.261063,164.452583 C153.766595,168.768778 156.058201,170.100369 160.097643,170.880958 C162.544613,171.340127 163.787518,171.340127 166.700577,170.880958 C180.13949,168.676944 185.732564,164.590334 197.695527,148.335731 C207.444565,135.06573 210.940236,131.530124 216.494468,129.463861 C219.291005,128.407771 221,128.315937 221,129.280193 C221,129.693446 220.611592,129.968947 219.990139,129.968947 C218.281145,129.968947 214.979678,131.300539 212.688071,132.95355 C209.347763,135.341232 206.046296,138.968671 201.152357,145.672547 C192.413179,157.656873 186.587061,164.177082 181.693122,167.299435 C176.138889,170.926875 166.079125,173.130889 159.709235,172.166632 Z" id="Shape"></path>
                        <path d="M11.8910013,150.961371 C11.8523466,150.734943 11.813692,150.236802 11.7750373,149.965089 C11.7363827,149.648091 11.5044548,149.421663 11.2725269,149.466949 C11.040599,149.512234 8.25746425,146.296962 5.12643768,142.311836 C-0.98099687,134.522727 -1.17427012,133.9793 2.1500297,134.341585 C3.46428777,134.522727 4.1987261,135.020867 5.89953066,136.787003 C8.1415003,139.187135 9.76499556,139.866418 12.0842745,139.322992 C13.7464244,138.915422 15.7178115,136.470004 29.5175212,117.676513 C45.6751645,95.577179 48.922155,91.2750545 50.1204491,90.3693441 C51.0481607,89.6900613 53.444749,89.5994902 79.652601,89.5994902 L108.179732,89.5994902 L109.609954,85.2973658 C110.383047,82.9425187 111.388068,79.8631033 111.813269,78.5045377 C113.166182,74.4288408 112.856945,73.0249897 107.83184,61.8394661 C106.788165,59.5299045 105.783144,57.6279127 105.628525,57.6731982 C105.435252,57.7184837 102.381535,60.7978991 98.8253069,64.5113118 C95.2690792,68.27001 91.9447794,71.7117096 91.4036143,72.2098503 L90.3985934,73.1155607 L80.4643486,70.8512847 C74.9753885,69.5832901 70.1049027,68.5417231 69.6410469,68.5417231 C69.1771911,68.5417231 68.7133353,68.3605811 68.5973714,68.1341535 C68.4814074,67.9530114 67.9015877,67.6360127 67.2831133,67.5001562 C66.6646389,67.3642996 64.4999786,65.9151629 62.4126275,64.2848842 C60.3639311,62.6546055 58.3152347,61.2054688 57.8900336,61.0696122 C56.3825023,60.4809005 57.1555953,59.8921887 59.0883277,60.2091873 L61.0210602,60.526186 L61.0210602,58.1713389 L61.0210602,55.8617774 L52.9808932,55.8617774 L44.9020715,55.8617774 L42.8533751,50.789799 C41.6937357,47.9820968 39.9542765,43.6346868 38.9106009,41.1439831 C37.9055801,38.6532795 37.0551778,36.3890035 37.0551778,36.0720048 C37.0551778,35.5738641 39.3744567,35.5285786 59.93873,35.8908627 L63.7268856,35.9361483 L65.3117262,39.8759886 C66.2007831,42.0949791 68.0175516,46.5782456 69.3704644,49.8840886 L71.8443619,55.8617774 L77.8358325,55.8617774 L83.8273031,55.8617774 L83.8273031,58.1260534 L83.8273031,60.3903294 L77.0627395,60.3903294 C70.2208666,60.3903294 68.0175516,60.9790412 72.9266921,61.5224674 C81.855916,62.4734634 87.6154587,63.1527462 88.349897,63.3338883 C89.0456807,63.5150303 90.2826295,61.8847516 96.5446826,52.4200778 L103.927721,41.2345542 L103.927721,38.4721374 C103.927721,35.7097207 103.077318,31.2717396 102.304225,30.1848871 C102.072297,29.822603 102.188261,29.5056043 102.768081,29.1433202 C103.927721,28.4187518 105.08736,26.0186192 105.08736,24.2977695 C105.08736,23.210917 105.280633,22.8033473 105.705834,22.8033473 C106.131036,22.8033473 106.247,23.0297749 106.092381,23.5279156 C105.705834,24.7506247 108.41166,27.2413283 113.011563,29.822603 C115.369497,31.1358831 118.191286,33.0831605 119.350926,34.0794419 L121.476931,35.9361483 L139.605962,35.9361483 L157.734992,35.9361483 L158.855977,37.2494284 C160.170235,38.8344216 160.170235,38.607994 159.203869,48.434952 C158.817322,52.6917909 158.353466,58.3071955 158.237502,60.8884702 C158.121539,63.4697448 157.850956,67.047301 157.619028,68.8134363 C157.271136,71.2588544 157.309791,72.9797042 157.657683,75.832692 C158.54674,82.8066621 158.54674,82.7613766 157.773647,83.8935146 C157.348446,84.4822264 156.188806,85.3426513 155.183785,85.7955065 L153.367017,86.6106459 L153.985491,85.4332223 C154.565311,84.4369409 154.565311,84.0293712 154.14011,82.1726649 C153.482981,79.229106 153.444326,79.229106 152.47796,80.8593848 C152.014104,81.6745241 151.241011,82.3990925 150.777155,82.4896635 C150.313299,82.5802345 149.926753,82.5802345 149.926753,82.444378 C149.926753,82.3538069 150.622537,80.6329572 151.511594,78.5951087 C152.632578,75.923263 153.135089,74.1118422 153.289707,72.1192793 C153.482981,69.6285756 153.444326,69.402148 152.787197,69.5380046 C152.168723,69.6285756 152.052759,69.3568625 151.936795,67.6360127 C151.89814,66.5038747 151.588903,61.9753226 151.279666,57.5826271 C150.970428,53.1899316 150.699846,49.2500913 150.699846,48.8878072 C150.699846,48.2538099 149.501552,48.1632388 140.301745,48.1632388 L129.86499,48.1632388 L131.179248,51.5143674 C135.276641,62.0206082 136.281662,74.6099829 134.078347,87.1993577 C133.498527,90.6410572 133.034671,92.3166215 132.802743,91.9543373 C132.570816,91.5920532 132.532161,91.7731952 132.648125,92.452478 C132.764089,92.9959043 132.725434,93.3581885 132.570816,93.2676174 C132.416197,93.1317609 132.068305,93.7657581 131.797723,94.6714686 C130.135573,100.01516 125.342396,106.536275 121.129039,109.162835 C115.369497,112.740391 110.537666,113.872529 101.067277,113.827244 C94.1094397,113.827244 91.2876504,113.510245 83.2474834,111.698824 C75.2073164,109.887404 72.5401456,109.072264 65.6596181,106.445704 C62.799174,105.313566 60.1320032,104.271999 59.7841114,104.090857 C59.3589103,103.909715 59.0883277,103.955 59.0883277,104.271999 C59.0883277,104.951282 56.8463581,109.253406 55.4934454,111.110113 C53.444749,113.872529 49.3473562,117.857655 44.9793808,121.254069 C40.9206427,124.424056 35.5863011,128.31861 35.3157186,128.31861 C35.2384093,128.31861 33.3056768,129.677176 30.9863979,131.307455 C27.3528609,133.934015 25.9999482,135.292581 20.395024,141.994838 C16.8387963,146.251677 13.8623884,149.512234 13.7850791,149.331092 C13.6691151,149.104664 13.6304605,149.14995 13.7077698,149.466949 C13.8237337,149.965089 12.7027489,151.414226 12.2002384,151.414226 C12.0456199,151.414226 11.8910013,151.233084 11.8910013,150.961371 Z M61.8301621,50.4934209 C61.7133545,48.9952101 61.6744186,48.9952101 59.6886892,48.9952101 C58.5984848,48.9952101 57.7029598,48.9044094 57.7418957,48.7682084 C57.7418957,48.6320074 57.1189218,47.0429959 56.3402044,45.272383 L54.8995772,41.958159 L52.5634249,41.958159 C51.2396054,41.958159 50.2272727,42.1397603 50.2272727,42.4121623 C50.2272727,43.0477669 52.4855532,48.2234045 53.45895,49.812416 C54.4712826,51.4922282 55.25,51.8100305 58.9099718,51.9008311 L61.9469697,51.9916318 L61.8301621,50.4934209 Z" id="Shape"></path>
                        <path d="M162.552646,111.542866 C162.401515,111.188538 162.363733,110.83421 162.439298,110.7161 C162.514863,110.597991 167.08656,110.479881 172.56504,110.420826 C189.151611,110.302717 189.189394,110.302717 189.189394,111.306648 C189.189394,112.074359 187.489176,112.192469 176.003259,112.192469 C167.048778,112.192469 162.703776,112.015304 162.552646,111.542866 Z" id="Shape"></path>
                        <path d="M20.8975168,66.8331407 C19.4109534,65.9033377 18.4199111,63.4238632 17.962507,59.3947172 C17.4288688,54.8785315 17.4288688,54.2586629 18.114975,54.2586629 C18.4199111,54.2586629 18.6867302,54.3914919 18.7248472,54.6128735 C19.2966024,62.582613 20.0208256,65.2391928 21.774208,65.9476141 C23.5657076,66.6560353 24.8235689,65.8590614 28.4828019,61.6085337 C30.9222906,58.7748486 32.4850881,57.3137297 33.5523644,56.9152427 C34.8483427,56.4282031 35.0770448,56.1625451 35.0770448,55.0556368 C35.0770448,54.3472155 35.2676298,53.8158996 35.5725659,53.8158996 C36.1062041,53.8158996 38.5075758,56.4724794 38.5075758,57.0480717 C38.5075758,57.225177 37.8977036,58.1107036 37.1353634,58.9962302 C35.763151,60.5901781 35.2295128,60.5459018 35.0008108,58.8634012 C34.8864597,58.0664273 34.7339917,58.022151 33.6285984,58.3320853 C32.7519071,58.5977432 31.2653437,60.0145858 29.0545571,62.6268893 C27.2249406,64.7964295 25.3572071,66.7888643 24.8998029,67.0545223 C23.7562926,67.7186673 22.1172611,67.6301146 20.8975168,66.8331407 Z" id="Shape"></path>
                        <path d="M55.9219413,27.9423039 C56.7138886,27.7805223 57.0532946,27.456959 57.0532946,26.8907233 C57.0532946,26.1222605 56.7138886,26.0818151 51.9622044,25.8795881 C47.7007733,25.677361 48.4550089,25.6369156 56.3367708,25.5560248 C66.6320866,25.475134 67.6125929,25.6369156 66.7075102,27.4165136 C66.2926806,28.2658672 66.0664099,28.3063126 60.5227784,28.2658672 C57.3549889,28.2254218 55.3185528,28.1040856 55.9219413,27.9423039 Z" id="Shape"></path>
                        <path d="M97.2624503,22.2051984 C96.3766029,21.2944915 95.3752102,20.6873535 94.7589685,20.6873535 C94.219757,20.6873535 93.7575758,20.5138855 93.7575758,20.2970505 C93.7575758,19.8200135 94.6434232,17.0445256 95.5292706,14.8328087 C95.9144216,13.8787348 96.1840274,12.9680278 96.1455122,12.8379268 C96.1455122,12.6644588 96.8387841,12.8379268 97.7246315,13.1848628 C98.6104789,13.5317988 99.6503868,13.8787348 99.9970227,13.9654688 C100.382174,14.0522028 101.152476,14.3991387 101.730202,14.7027077 C102.731595,15.2231117 102.808625,15.4833137 102.924171,18.4322696 C103.039716,21.2944915 102.962686,21.6414274 102.076838,22.6388684 C100.690295,24.2000803 99.1111753,24.0699793 97.2624503,22.2051984 Z" id="Shape"></path>
                        <path d="M29.2992424,7.29707113 L29.2992424,0 L32.400164,3.6930299 C34.0846152,5.73976936 36.9175559,9.03235024 38.6785731,10.990101 L41.8560606,14.5941423 L35.5776515,14.5941423 L29.2992424,14.5941423 L29.2992424,7.29707113 Z" id="Shape"></path>
                    </g>
                    <g id="layer103" fill="#11A9EB">
                        <path d="M60.2727273,218.731177 C60.2727273,214.538342 62.0894528,209.798616 65.2204053,205.924801 C68.8538564,201.458521 73.6855733,198.90636 79.4063261,198.496192 C82.6532398,198.222746 85.7455386,198.769638 91.5435988,200.592609 C94.442629,201.504095 95.0610887,201.549669 96.9551217,201.048352 C102.443952,199.681123 105.613558,196.536497 110.870466,187.284916 C111.952771,185.370796 112.841807,183.684547 112.841807,183.547824 C112.841807,183.411101 113.692189,181.724853 114.774494,179.765158 C116.166028,177.258572 116.552565,176.164789 116.204682,175.891343 C115.895452,175.663472 115.895452,175.526749 116.166028,175.526749 C117.248333,175.526749 117.518909,176.757255 116.784488,178.306781 C110.213353,191.842345 105.690866,198.313895 100.897803,200.911629 C98.1533875,202.415581 97.9214651,202.506729 94.5199364,202.278858 C92.5099422,202.142135 89.765527,201.640818 88.1034164,201.048352 C84.2766967,199.726698 78.1307528,199.5444 74.7678779,200.729332 C67.307707,203.327067 62.5919514,209.342873 61.3936856,217.819691 C60.8525333,221.647932 60.2727273,222.103675 60.2727273,218.731177 Z" id="Shape"></path>
                        <path d="M162.016739,195.453137 C156.217205,192.710762 153.785142,191.659519 153.298729,191.659519 C152.887149,191.659519 153.672893,188.23155 155.768208,181.009963 C155.805625,180.781432 158.31252,182.061207 161.268412,183.84375 C164.26172,185.626294 167.105363,187.1346 167.629192,187.1346 C168.452352,187.226013 168.452352,187.226013 167.741441,187.408838 C166.993114,187.591663 166.61895,188.460081 166.244787,190.973925 C166.169954,191.476694 165.90804,192.710762 165.683542,193.7163 C165.459044,194.721837 165.234545,195.727374 165.234545,195.955906 C165.159713,196.732912 164.486218,196.595793 162.016739,195.453137 Z" id="Shape"></path>
                        <path d="M159.709235,175.300739 C156.368927,174.797131 153.106301,172.920044 149.144541,169.16587 C147.319024,167.471913 145.18278,165.549044 144.405964,164.908087 C139.939274,161.428609 133.33634,160.55874 129.335738,162.893653 C128.170515,163.580392 127.238336,164.358696 127.277177,164.633392 C127.354858,165.045435 127.121813,165.045435 126.46152,164.679174 L125.568182,164.175566 L126.578042,163.259913 C129.452261,160.55874 132.714887,159.551522 136.637807,160.238261 C141.415224,161.016566 143.667989,162.344261 149.261063,167.609261 C153.766595,171.912826 156.058201,173.240522 160.097643,174.018826 C162.544613,174.476652 163.787518,174.476652 166.700577,174.018826 C180.13949,171.821261 185.732564,167.746609 197.695527,151.539566 C207.444565,138.308392 210.940236,134.783132 216.494468,132.722914 C219.291005,131.669914 221,131.578349 221,132.539784 C221,132.951827 220.611592,133.226523 219.990139,133.226523 C218.281145,133.226523 214.979678,134.554219 212.688071,136.202392 C209.347763,138.583088 206.046296,142.199914 201.152357,148.884175 C192.413179,160.833435 186.587061,167.334566 181.693122,170.447783 C176.138889,174.064609 166.079125,176.262174 159.709235,175.300739 Z" id="Shape"></path>
                        <path d="M11.8554867,155.065452 C11.8169475,154.838918 11.7784083,154.340545 11.7398691,154.068705 C11.7013299,153.751558 11.4700947,153.525024 11.2388595,153.570331 C11.0076243,153.615638 8.2328019,150.398863 5.11112668,146.411875 C-0.978066952,138.619126 -1.17076295,138.075446 2.14360826,138.437899 C3.45394107,138.619126 4.18618588,139.1175 5.88191068,140.88446 C8.1171843,143.285714 9.7358307,143.965315 12.0481827,143.421634 C13.7053683,143.013874 15.6708675,140.567313 29.429362,121.76504 C45.5772869,99.6100725 48.7760405,95.3512444 49.9707557,94.4451107 C50.8956965,93.7202038 53.9017541,93.6748971 92.1326407,93.6748971 C126.239833,93.6748971 133.253967,93.7655105 133.099811,94.263884 C132.984193,94.6263374 132.907115,95.3059377 132.907115,95.8496179 C132.907115,96.6651382 132.830036,96.7557515 132.483183,96.1667646 C132.136331,95.6230845 132.097791,95.6683911 132.251948,96.5292181 C132.367566,97.0728983 132.329027,97.4353518 132.17487,97.3447384 C132.020713,97.2088183 131.67386,97.8431119 131.404086,98.7492455 C129.7469,104.095434 124.968039,110.619596 120.767266,113.247384 C115.024926,116.826612 110.207526,117.959279 100.765422,117.913972 C93.8283656,117.913972 91.0150039,117.596825 82.9988503,115.784558 C74.9826967,113.972291 72.3234918,113.156771 65.4635142,110.528983 C62.6116134,109.396316 59.9524086,108.354262 59.6055558,108.173035 C59.1816246,107.991809 58.9118502,108.037115 58.9118502,108.354262 C58.9118502,109.033862 56.6765766,113.337997 55.3277045,115.195571 C53.2851269,117.959279 49.1999717,121.946267 44.8450421,125.344268 C40.7984261,128.515736 35.4800164,132.412111 35.210242,132.412111 C35.1331636,132.412111 33.2062036,133.771311 30.8938516,135.402352 C27.2711668,138.030139 25.9222948,139.38934 20.3341108,146.094729 C16.7885043,150.353557 13.8209859,153.615638 13.7439075,153.434411 C13.6282899,153.207878 13.5897507,153.253184 13.6668291,153.570331 C13.7824467,154.068705 12.6648099,155.518519 12.1638003,155.518519 C12.0096435,155.518519 11.8554867,155.337292 11.8554867,155.065452 Z" id="Shape"></path>
                        <path d="M162.552646,114.854356 C162.401515,114.501064 162.363733,114.147773 162.439298,114.030009 C162.514863,113.912245 167.08656,113.794481 172.56504,113.735599 C189.151611,113.617835 189.189394,113.617835 189.189394,114.618828 C189.189394,115.384294 187.489176,115.502058 176.003259,115.502058 C167.048778,115.502058 162.703776,115.325412 162.552646,114.854356 Z" id="Shape"></path>
                        <path d="M153.883286,88.875067 C154.460227,87.8918616 154.460227,87.4896412 154.037137,85.6573038 C153.38327,82.7523786 153.344808,82.7523786 152.383239,84.3612603 C151.921686,85.1657011 151.152431,85.8807595 150.690878,85.9701419 C150.229325,86.0595242 149.844697,86.0595242 149.844697,85.9254507 C149.844697,85.8360684 150.537027,84.1378045 151.42167,82.1713936 C152.498627,79.6686889 153.037106,77.702278 153.229419,75.7358672 L153.498659,72.8756332 L155.537185,72.3840305 L157.537248,71.8477366 L157.306471,73.9482209 C157.191083,75.0654998 157.268008,77.5235134 157.537248,79.3558508 C158.421891,86.2829799 158.421891,86.2382888 157.652636,87.3555677 C157.229546,87.9365527 156.075663,88.7856847 155.075631,89.2325962 L153.267882,90.037037 L153.883286,88.875067 Z" id="Shape"></path>
                        <path d="M65.3092913,70.8990678 C64.4569497,70.3114722 62.5972953,68.9102827 61.1638117,67.7802912 C59.7303281,66.6051 58.2193589,65.5655078 57.7931881,65.3847092 C56.2047333,64.7971136 56.9795893,64.209518 58.9167293,64.5259156 L60.8538693,64.8423132 L60.8538693,62.4919309 L60.8538693,60.1867482 L52.7953669,60.1867482 L44.6981217,60.1867482 L42.6447533,55.1243861 C41.4824693,52.3220072 39.7390433,47.9828397 38.6929877,45.4968584 C37.6856749,43.010877 36.8333333,40.750894 36.8333333,40.4344964 C36.8333333,39.9373001 39.1579013,39.8921004 59.7690709,40.2536977 L63.5658653,40.2988974 L65.1543201,44.2764675 C66.0454045,46.4460513 67.8663161,50.9208177 69.222314,54.2203929 L71.7018532,60.1867482 L77.7069872,60.1867482 L83.7121212,60.1867482 L83.7121212,62.4467312 L83.7121212,64.7067142 L76.9321312,64.7067142 C73.0191084,64.7067142 70.1521412,64.8875129 70.1521412,65.1135112 C70.1521412,65.3395095 70.5008264,65.6107075 70.9269972,65.7011068 C71.6243676,65.8367058 71.546882,66.0627041 70.2296268,68.7746837 C68.5249437,72.2098579 67.7113449,72.5262556 65.3092913,70.8990678 Z M60.9930409,53.9835391 C60.8762333,52.4897119 60.8372974,52.4897119 58.851568,52.4897119 C57.7613636,52.4897119 56.8658386,52.399177 56.9047745,52.2633745 C56.9047745,52.127572 56.2818006,50.5432099 55.5030832,48.7777778 L54.062456,45.473251 L51.7263037,45.473251 C50.4024841,45.473251 49.3901515,45.654321 49.3901515,45.9259259 C49.3901515,46.5596708 51.648432,51.7201646 52.6218288,53.3045267 C53.6341614,54.9794239 54.4128788,55.2962963 58.0728506,55.3868313 L61.1098485,55.4773663 L60.9930409,53.9835391 Z" id="Shape"></path>
                        <path d="M20.8975168,70.2754494 C19.4109534,69.348367 18.4199111,66.8761474 17.962507,62.8587905 C17.4288688,58.355819 17.4288688,57.7377641 18.114975,57.7377641 C18.4199111,57.7377641 18.6867302,57.8702044 18.7248472,58.0909383 C19.2966024,66.0373586 20.0208256,68.6861653 21.774208,69.3925138 C23.5657076,70.0988623 24.8235689,69.3042203 28.4828019,65.0661294 C30.9222906,62.2407356 32.4850881,60.7838919 33.5523644,60.3865708 C34.8483427,59.9009563 35.0770448,59.6360756 35.0770448,58.5324061 C35.0770448,57.8260576 35.2676298,57.2962963 35.5725659,57.2962963 C36.1062041,57.2962963 38.5075758,59.9451031 38.5075758,60.5190112 C38.5075758,60.6955983 37.8977036,61.5785339 37.1353634,62.4614695 C35.763151,64.0507535 35.2295128,64.0066067 35.0008108,62.3290291 C34.8864597,61.5343871 34.7339917,61.4902403 33.6285984,61.7992678 C32.7519071,62.0641485 31.2653437,63.4768454 29.0545571,66.0815054 C27.2249406,68.2446976 25.3572071,70.2313026 24.8998029,70.4961833 C23.7562926,71.158385 22.1172611,71.0700914 20.8975168,70.2754494 Z" id="Shape"></path>
                        <path d="M103.911598,41.4792441 C103.911598,39.1037183 102.998298,34.6664154 102.243833,33.680348 C102.005581,33.3217781 102.124707,33.0080294 102.720337,32.6494595 C103.911598,31.9323196 105.102858,29.5567938 105.102858,27.8535866 C105.102858,26.7778768 105.301402,26.3744856 105.738197,26.3744856 C106.174993,26.3744856 106.294119,26.5985918 106.135284,27.0916255 C105.857323,27.8984078 108.557514,30.9462523 110.304696,31.7530346 L111.337121,32.2460683 L108.041301,37.8039023 C106.174993,40.8517467 104.507228,43.4962 104.308685,43.6306637 C104.070433,43.8099487 103.911598,42.9583451 103.911598,41.4792441 Z" id="Shape"></path>
                        <path d="M55.9219413,31.4984059 C56.7138886,31.3370976 57.0532946,31.0144811 57.0532946,30.4499021 C57.0532946,29.6836878 56.7138886,29.6433608 51.9622044,29.4417254 C47.7007733,29.2400901 48.4550089,29.199763 56.3367708,29.1191089 C66.6320866,29.0384548 67.6125929,29.199763 66.7075102,30.974154 C66.2926806,31.8210224 66.0664099,31.8613495 60.5227784,31.8210224 C57.3549889,31.7806953 55.3185528,31.6597141 55.9219413,31.4984059 Z" id="Shape"></path>
                        <path d="M76.2330294,29.5516575 C75.0057954,28.9571414 58.4764871,8.88078956 58.0162743,7.41736528 C56.7506892,3.39294851 60.4323913,-1.08878835 63.883987,0.237439901 C64.6893593,0.557563962 68.0642529,4.26185667 73.8552635,11.16739 C81.8322847,20.6796478 82.637657,21.777216 82.8294123,23.4693004 C83.3279761,27.8595732 79.6462741,31.2894739 76.2330294,29.5516575 Z M81.0642669,27.7818353 C81.8042119,26.9534032 82.0378788,26.2170191 82.0378788,24.8362989 C82.0378788,23.0413626 81.8042119,22.7191946 73.1195941,12.4558411 C64.3960317,2.10043956 64.2013093,1.87031953 62.5656414,1.82429552 C61.2025848,1.77827152 60.7741956,2.00839155 59.8005837,3.29706374 C57.5418041,6.24260017 57.697582,6.51874421 67.1221449,17.7486018 C70.821863,22.1436463 73.9647876,26.8673377 76.3909299,28.4389406 C78.7857308,29.9902412 80.4838975,28.4219825 81.0642669,27.7818353 Z" id="Shape"></path>
                        <path d="M97.2624503,25.7780869 C96.3766029,24.8700446 95.3752102,24.2646831 94.7589685,24.2646831 C94.219757,24.2646831 93.7575758,24.0917227 93.7575758,23.8755222 C93.7575758,23.399881 94.6434232,20.6325141 95.5292706,18.4272686 C95.9144216,17.4759862 96.1840274,16.5679439 96.1455122,16.4382236 C96.1455122,16.2652632 96.8387841,16.4382236 97.7246315,16.7841444 C98.6104789,17.1300653 99.6503868,17.4759862 99.9970227,17.5624664 C100.382174,17.6489466 101.152476,17.9948675 101.730202,18.2975482 C102.731595,18.8164295 102.808625,19.0758702 102.924171,22.0161975 C103.039716,24.8700446 102.962686,25.2159655 102.076838,26.210488 C100.690295,27.7671319 99.1111753,27.6374115 97.2624503,25.7780869 Z" id="Shape"></path>
                    </g>
                    <g id="layer104" transform="translate(14.000000, 16.000000)" fill="#92A4A5">
                        <path d="M148.716063,179.0091 C142.880017,176.267854 140.432643,175.217042 139.943168,175.217042 C139.528997,175.217042 140.319687,171.790484 142.428194,164.571868 C142.465846,164.343431 144.988524,165.622679 147.963024,167.404489 C150.975177,169.1863 153.836722,170.693985 154.363849,170.693985 C155.19219,170.78536 155.19219,170.78536 154.476804,170.96811 C153.723766,171.15086 153.347247,172.018921 152.970728,174.531731 C152.895424,175.034293 152.631861,176.267854 152.405949,177.272977 C152.180038,178.278101 151.954127,179.283225 151.954127,179.511662 C151.878823,180.288349 151.201088,180.151286 148.716063,179.0091 Z" id="Shape"></path>
                        <path d="M2.27504976,128.227273 L0,125.5 L2.7763319,121.863636 L5.59122397,118.181818 L8.25187538,120.772727 L10.951087,123.318182 L7.75059323,127.136364 C6.01538579,129.181818 4.55009951,130.909091 4.55009951,130.909091 C4.55009951,130.909091 3.50897505,129.681818 2.27504976,128.227273 Z" id="Shape"></path>
                        <path d="M140.531405,73.3258879 C141.111979,72.2939468 141.111979,71.8717891 140.686225,69.9486263 C140.028242,66.8997096 139.989537,66.8997096 139.021914,68.5883404 C138.557456,69.4326558 137.783358,70.1831584 137.318899,70.2769712 C136.85444,70.370784 136.467391,70.370784 136.467391,70.2300648 C136.467391,70.136252 137.164079,68.3538084 138.054292,66.2899263 C139.138029,63.6631673 139.679898,61.5992852 139.873422,59.5354032 L140.144356,56.5333929 L142.195716,56.0174224 L144.20837,55.4545455 L143.976141,57.6591468 C143.860026,58.831807 143.937436,61.4116596 144.20837,63.3348224 C145.098583,70.6053161 145.098583,70.5584096 144.324485,71.7310699 C143.898731,72.3408532 142.737584,73.2320751 141.731257,73.7011392 L139.912127,74.5454545 L140.531405,73.3258879 Z" id="Shape"></path>
                        <path d="M52.4018746,54.505388 C51.5211346,53.9174897 49.59952,52.5155785 48.1182754,51.3850049 C46.6370307,50.2092084 45.0757188,49.1690807 44.6353488,48.9881889 C42.6737006,48.3098448 44.1549452,48.08373 49.3993518,48.2193989 C52.4819419,48.3550677 55.9248348,48.6264054 57.005743,48.942966 L58.9673913,49.4404183 L57.4861467,52.3799096 C55.7246666,55.8168533 54.8839602,56.1334139 52.4018746,54.505388 Z" id="Shape"></path>
                        <path d="M90.2451206,26.0076361 C90.2451206,23.6330874 89.3260713,19.1976098 88.5668567,18.2119481 C88.3271047,17.8535256 88.4469807,17.539906 89.0463606,17.1814836 C90.2451206,16.4646387 91.4438806,14.09009 91.4438806,12.3875835 C91.4438806,11.3123162 91.643674,10.9090909 92.0832193,10.9090909 C92.5227646,10.9090909 92.6426406,11.1331049 92.482806,11.6259358 C92.2030953,12.4323863 94.9202846,15.478977 96.678466,16.2854275 L97.7173913,16.7782583 L94.400822,22.3338061 C92.5227646,25.3803968 90.8445006,28.0237623 90.6447073,28.1581707 C90.4049553,28.3373819 90.2451206,27.4861286 90.2451206,26.0076361 Z" id="Shape"></path>
                        <path d="M83.505697,9.3531408 C82.6067528,8.41489622 81.5905551,7.78939984 80.9652026,7.78939984 C79.7144977,7.78939984 79.7144977,7.52132996 80.9652026,3.85770829 C82.3331611,-0.118661576 82.5676683,-0.342053141 84.248303,0.238764929 C84.9909091,0.462156495 85.9289378,0.774904686 86.2806986,0.864261312 C86.6715438,0.953617939 87.4532344,1.31104444 88.0395024,1.62379264 C89.0557001,2.15993239 89.1338692,2.42800227 89.2511228,5.46612756 C89.3683763,8.41489622 89.2902073,8.77232273 88.3912631,9.79992393 C86.9842201,11.4083432 85.3817544,11.2743083 83.505697,9.3531408 Z" id="Shape"></path>
                    </g>
                </g>
            </g>
        </g>
    </g>
</svg>