<svg xmlns="http://www.w3.org/2000/svg" xmlns:xlink="http://www.w3.org/1999/xlink" width="450" height="451" viewBox="0 0 450 451">
    <defs>
        <rect id="b" width="442" height="442" rx="100"/>
        <filter id="a" width="103.8%" height="104.1%" x="-1.9%" y="-1%" filterUnits="objectBoundingBox">
            <feOffset dy="5" in="SourceAlpha" result="shadowOffsetOuter1"/>
            <feGaussianBlur in="shadowOffsetOuter1" result="shadowBlurOuter1" stdDeviation="2"/>
            <feColorMatrix in="shadowBlurOuter1" values="0 0 0 0 0 0 0 0 0 0 0 0 0 0 0 0 0 0 0.5 0"/>
        </filter>
    </defs>
    <g fill="none" fill-rule="evenodd">
        <g transform="translate(4)">
            <use fill="#000" filter="url(#a)" xlink:href="#b"/>
            <use fill="#007BFF" xlink:href="#b"/>
        </g>
        <text fill="#FFF" font-family="AvenirNext-Bold, Avenir Next" font-size="48" font-weight="bold" transform="translate(4)">
            <tspan x="73" y="76">Masterplan</tspan>
        </text>
        <path fill="#FFF" d="M345.28 134.338c52.475 75.07 59.386 195.503-9.877 241.782-68.467 45.746-222.733-34.251-265.585-57.73-42.851-23.48-46.99-48.942-19.205-98.314 55.97-99.456 25.241-141.182 115.781-85.738 41.97 25.7 126.41-75.07 178.886 0z"/>
        <g fill-rule="nonzero">
            <g fill="#233C54">
                <path d="M175.781 374.74c0-4.178 1.82-8.901 4.954-12.76 3.638-4.451 8.475-6.994 14.203-7.403 3.25-.272 6.347.273 12.152 2.09 2.902.907 3.522.953 5.418.453 5.495-1.362 8.669-4.495 13.932-13.714 1.083-1.907 1.974-3.587 1.974-3.723 0-.137.851-1.817 1.935-3.77 1.625-2.951 1.819-3.587 1.315-3.905-.503-.318-8.707-3.86-19.272-8.355-3.832-1.59-4.722-2.18-5.573-3.86-1.548-3.043-1.51-3.542 1.664-15.349.58-2.134 2.09-7.72 3.328-12.488a5629.78 5629.78 0 0 0 3.445-12.805c.657-2.27 1.16-4.36 1.16-4.632 0-.318-1.238-.5-3.366-.5-7.508 0-21.092-3.133-32.238-7.401-2.863-1.136-5.534-2.18-5.882-2.362-.426-.181-.697-.136-.697.182 0 .681-2.244 4.995-3.599 6.857-2.05 2.77-6.153 6.766-10.526 10.172-4.064 3.178-9.404 7.084-9.675 7.084-.078 0-2.013 1.362-4.335 2.997-3.715 2.679-4.992 3.996-11.377 11.625l-7.16 8.628-2.36-2.861a705.633 705.633 0 0 1-6.502-8.265c-4.567-5.812-4.722-6.448-1.47-6.085 1.315.182 2.05.681 3.753 2.452 2.245 2.407 3.87 3.088 6.192 2.543 1.664-.408 3.638-2.86 17.454-21.706 16.176-22.16 19.427-26.474 20.627-27.382.929-.681 3.328-.772 29.567-.772h28.56l1.432-4.314c.774-2.361 1.78-5.45 2.206-6.812 1.355-4.087 1.045-5.494-3.986-16.71-1.045-2.317-2.05-4.224-2.206-4.178-.193.045-3.25 3.133-6.81 6.857-3.561 3.769-6.89 7.22-7.431 7.72l-1.007.908-9.945-2.27c-5.496-1.272-10.372-2.317-10.836-2.317-.465 0-.93-.182-1.045-.409-.116-.181-.736-.5-1.355-.635-.62-.137-2.554-1.408-4.257-2.816-5.418-4.314-5.457-4.314-11.765-4.314h-5.573l-1.857-4.632c-1.045-2.588-3.251-8.037-4.915-12.124-1.664-4.087-2.941-7.538-2.787-7.72.271-.318 14.59-.409 22.33-.136l5.341.182 1.587 3.905c.851 2.18 2.67 6.675 4.025 9.99l2.476 5.994h11.997v4.541h-6.772c-6.85 0-9.056.59-4.141 1.136 8.94.953 14.706 1.634 15.441 1.816.697.182 1.935-1.453 8.205-10.944l7.392-11.216v-2.77c0-2.816-.89-7.22-1.626-8.356-.31-.408-.542-.408-.929-.09-.27.272-1.315.454-2.322.363-2.554-.182-3.25-1.408-3.521-6.222-.194-3.178-.31-3.678-.93-3.678-.425 0-.734-.227-.734-.5 0-.68 1.973-6.448 2.36-6.947.194-.227-.425-1.226-1.393-2.316-1.703-1.816-1.741-1.953-1.741-4.677 0-2.589.116-2.997 1.277-4.496 1.122-1.408 1.586-1.68 3.444-1.862 2.67-.227 3.947.5 6.115 3.542.928 1.272 2.94 3.36 4.527 4.587 5.186 4.087 5.225 6.766.271 12.442-1.896 2.18-2.786 3.542-2.67 3.996.426 1.272 3.135 3.406 7.198 5.677 2.206 1.271 4.954 3.133 6.115 4.132l2.128 1.862h36.301l1.122 1.317c1.316 1.589 1.316 1.362.349 11.216-.387 4.269-.852 9.9-.968 12.488-.116 2.588-.387 6.176-.619 7.947-.348 2.452-.31 4.177.039 7.038.89 6.993.89 6.948.116 8.083-.426.59-1.587 1.453-2.593 1.907l-1.819.818.62-1.18c.58-1 .58-1.409.154-3.27-.658-2.952-.697-2.952-1.664-1.317-.464.817-1.238 1.544-1.703 1.634-.464.091-.851.091-.851-.045 0-.09.696-1.816 1.586-3.86 1.123-2.679 1.626-4.495 1.78-6.493.194-2.498.155-2.725-.502-2.589-.62.091-.736-.181-.852-1.907-.039-1.135-.348-5.676-.658-10.081-.31-4.405-.58-8.356-.58-8.719 0-.636-1.2-.726-10.41-.726h-10.45l1.316 3.36c5.147 13.305 5.38 28.381.697 45.456-4.683 16.938-12.733 37.78-19.583 50.541-.85 1.59-1.47 2.952-1.354 3.043.31.363 14.59 8.4 14.938 8.4.194 0 .58-.272.813-.635 1.587-2.225 6.27-3.633 10.023-2.997 4.76.772 7.005 2.089 12.578 7.31 4.489 4.27 6.772 5.586 10.797 6.358 2.438.454 3.677.454 6.58 0 13.39-2.18 18.962-6.221 30.882-22.296 9.714-13.124 13.197-16.62 18.73-18.664 2.787-1.044 4.49-1.135 4.49-.181 0 .408-.387.68-1.006.68-1.703 0-4.993 1.318-7.276 2.952-3.328 2.362-6.618 5.95-11.494 12.579-8.669 11.807-14.512 18.3-19.311 21.343-5.612 3.633-15.403 5.812-21.75 4.859-3.637-.545-6.656-2.225-10.758-6.085-1.82-1.68-3.948-3.588-4.722-4.223-4.45-3.452-11.03-4.314-15.015-1.998-2.129 1.226-2.477 1.816-1.51 2.452.31.181 9.095 5.313 19.544 11.398 11.649 6.811 19.66 11.216 20.704 11.398 2.748.5 6.773 2.043 7.74 2.906l.852.863-1.277 4.268c-3.483 11.852-6.153 20.707-6.463 21.66l-.348 1.045-.736-.999c-.696-.862-.774-1.634-.774-7.856 0-6.63-.038-6.947-1.122-9.672-1.122-2.815-1.161-2.86-3.87-4.042-1.51-.635-3.444-1.498-4.296-1.861-.851-.364-2.941-1.272-4.644-1.953-1.703-.681-4.992-2.089-7.353-3.088-2.322-.999-7.198-3.088-10.836-4.632-3.599-1.544-8.9-3.814-11.765-5.04-2.825-1.226-5.224-2.225-5.263-2.135-.077.091-.464.863-.89 1.726-6.386 13.26-11.107 19.98-15.906 22.569-2.747 1.498-2.98 1.59-6.385 1.362-2.013-.136-4.76-.636-6.425-1.226-3.83-1.317-9.984-1.498-13.351-.318-7.47 2.589-12.19 8.583-13.39 17.03-.542 3.814-1.123 4.268-1.123.907zm-3.914-164.941c-.16-1.116-.08-1.35.52-1.35.64 0 .52-.464-.84-3.487l-1.56-3.489h-2.4c-1.36 0-2.36.186-2.36.465 0 .652 2.32 5.954 3.32 7.582 1.48 2.465 3.72 2.65 3.32.279z"/>
                <path d="M277.553 270.854c-.151-.353-.19-.706-.114-.824s4.648-.236 10.126-.294c16.587-.118 16.624-.118 16.624.883 0 .765-1.7.883-13.186.883-8.954 0-13.3-.177-13.45-.648zM136.735 226.275c-1.487-.927-2.478-3.399-2.935-7.416-.534-4.503-.534-5.121.152-5.121.305 0 .572.132.61.353.572 7.946 1.296 10.595 3.05 11.302 1.79.706 3.049-.089 6.708-4.327 2.44-2.825 4.002-4.282 5.07-4.68 1.295-.485 1.524-.75 1.524-1.854 0-.706.19-1.236.496-1.236.533 0 2.935 2.65 2.935 3.223 0 .177-.61 1.06-1.373 1.942-1.372 1.59-1.905 1.546-2.134-.132-.114-.795-.267-.839-1.372-.53-.877.265-2.364 1.678-4.574 4.283-1.83 2.163-3.698 4.15-4.155 4.414-1.144.662-2.783.574-4.002-.22zM161.326 187.196c-.345-.437-.383-.794-.077-1.27.345-.597 1.533-.676 9.921-.795 10.457-.12 11.453.08 10.533 1.827-.46.873-.574.873-10.15.873-8.388 0-9.767-.08-10.227-.635zM191.233 185.552c-1.227-.595-17.757-20.671-18.217-22.135-1.265-4.024 2.416-8.506 5.868-7.18.805.32 4.18 4.025 9.971 10.93 7.977 9.513 8.783 10.61 8.974 12.302.499 4.39-3.183 7.82-6.596 6.083zm4.598-1.7c.973-.962 1.207-1.512 1.207-3.07 0-1.833-.195-2.108-8.918-12.372-8.724-10.31-8.919-10.54-10.554-10.586-1.363-.046-1.792.184-2.765 1.467-2.26 2.932-2.103 3.207 7.321 14.388 4.635 5.5 8.55 10.095 8.706 10.095.195 0-.698-1.19-.932-1.648-.74-1.65.443-2.902 1.534-3.91 1.363-1.283 2.687-1.191 3.855.183 1.324 1.512 1.247 3.208-.194 4.903-.623.734-1.35 1.543-1.465 1.57-2.331.55 1.114.08 2.205-1.02z"/>
                <path d="M175.212 163.815c-.444-.738-.776-1.77-.776-2.361.037-1.575 1.146-3.198 2.477-3.543.999-.246 1.368-.049 2.33 1.181 1.294 1.771 1.368 2.263.37 4.428-.63 1.329-.925 1.575-2.182 1.575-1.146 0-1.627-.296-2.219-1.28zM144.3 166.914v-7.276l3.1 3.682a265.558 265.558 0 0 0 6.279 7.276l3.177 3.593H144.3v-7.275z"/>
            </g>
            <g fill="#D11D34">
                <path d="M175.273 374.725c0-4.206 1.816-8.96 4.947-12.844 3.634-4.48 8.466-7.04 14.186-7.45 3.247-.275 6.34.273 12.138 2.102 2.899.914 3.517.96 5.411.457 5.489-1.371 8.659-4.525 13.915-13.804 1.083-1.92 1.972-3.611 1.972-3.748s.85-1.828 1.932-3.794c1.392-2.514 1.779-3.61 1.43-3.885-.309-.229-.309-.366-.038-.366 1.082 0 1.353 1.234.618 2.788-6.57 13.576-11.093 20.066-15.886 22.672-2.745 1.508-2.977 1.6-6.378 1.37-2.01-.136-4.754-.639-6.417-1.233-3.826-1.326-9.972-1.509-13.335-.32-7.46 2.605-12.176 8.639-13.374 17.14-.541 3.84-1.121 4.297-1.121.915zM277.017 351.378c-5.8-2.75-8.232-3.805-8.718-3.805-.412 0 .374-3.438 2.47-10.68.037-.23 2.544 1.054 5.5 2.842 2.993 1.787 5.836 3.3 6.36 3.3.823.092.823.092.112.275-.748.184-1.122 1.055-1.496 3.576-.075.504-.337 1.742-.561 2.75-.225 1.009-.45 2.017-.45 2.246-.074.78-.748.642-3.217-.504zM274.71 331.167c-3.341-.505-6.604-2.388-10.565-6.153-1.826-1.7-3.962-3.628-4.739-4.27-4.467-3.49-11.07-4.363-15.07-2.02-1.165.688-2.098 1.468-2.059 1.744.078.413-.155.413-.815.046l-.894-.505 1.01-.919c2.874-2.709 6.137-3.719 10.06-3.03 4.777.78 7.03 2.112 12.623 7.393 4.506 4.316 6.797 5.647 10.837 6.428 2.447.46 3.69.46 6.603 0 13.438-2.204 19.032-6.29 30.995-22.545 9.749-13.27 13.244-16.806 18.798-18.872 2.797-1.056 4.506-1.148 4.506-.184 0 .413-.388.689-1.01.689-1.709 0-5.01 1.332-7.302 2.985-3.34 2.387-6.642 6.015-11.536 12.719-8.739 11.984-14.565 18.504-19.459 21.626-5.554 3.628-15.614 5.832-21.984 4.868zM126.891 309.961c-.039-.226-.077-.724-.116-.996-.039-.317-.27-.543-.502-.498-.232.045-3.016-3.17-6.147-7.155-6.107-7.79-6.3-8.333-2.976-7.97 1.314.18 2.049.679 3.75 2.445 2.242 2.4 3.865 3.08 6.184 2.536 1.662-.408 3.634-2.853 17.434-21.646 16.157-22.1 19.404-26.402 20.602-27.308.928-.679 3.325-.77 29.533-.77h28.527l1.43-4.302a713.51 713.51 0 0 0 2.203-6.792c1.353-4.076 1.044-5.48-3.981-16.666-1.044-2.31-2.049-4.211-2.203-4.166-.194.045-3.247 3.125-6.804 6.838-3.556 3.759-6.88 7.2-7.421 7.699l-1.005.906-9.935-2.265c-5.489-1.268-10.36-2.31-10.823-2.31-.464 0-.928-.18-1.044-.407-.116-.181-.695-.498-1.314-.634-.618-.136-2.783-1.585-4.87-3.215-2.05-1.63-4.098-3.08-4.523-3.215-1.507-.59-.734-1.178 1.198-.86l1.933.316v-4.665h-16.119l-2.049-5.071c-1.16-2.808-2.899-7.155-3.942-9.646-1.005-2.49-1.856-4.755-1.856-5.072 0-.498 2.32-.543 22.884-.181l3.788.045 1.585 3.94c.889 2.219 2.706 6.702 4.058 10.008l2.474 5.978h11.983v4.528h-6.764c-6.842 0-9.045.589-4.136 1.132 8.929.951 14.688 1.63 15.423 1.812.696.181 1.933-1.45 8.195-10.914l7.383-11.185v-2.763c0-2.762-.85-7.2-1.624-8.287-.232-.362-.116-.68.464-1.042 1.16-.724 2.32-3.124 2.32-4.845 0-1.087.193-1.495.618-1.495s.541.227.386.725c-.386 1.223 2.32 3.713 6.92 6.295 2.357 1.313 5.18 3.26 6.339 4.256l2.126 1.857h36.258l1.121 1.313c1.314 1.585 1.314 1.359.348 11.186-.387 4.257-.85 9.872-.966 12.453-.116 2.582-.387 6.16-.619 7.925-.348 2.446-.31 4.167.039 7.02.889 6.974.889 6.928.116 8.06-.426.59-1.585 1.45-2.59 1.903l-1.817.815.618-1.178c.58-.996.58-1.404.155-3.26-.657-2.944-.696-2.944-1.662-1.314-.464.816-1.237 1.54-1.7 1.63-.465.091-.851.091-.851-.045 0-.09.696-1.811 1.585-3.849 1.12-2.672 1.623-4.483 1.778-6.476.193-2.49.154-2.717-.503-2.581-.618.09-.734-.181-.85-1.902-.039-1.132-.348-5.66-.657-10.053-.31-4.393-.58-8.333-.58-8.695 0-.634-1.198-.725-10.398-.725h-10.437l1.314 3.351c4.098 10.507 5.103 23.096 2.9 35.685-.58 3.442-1.044 5.118-1.276 4.755-.232-.362-.27-.18-.155.498.116.544.077.906-.077.816-.155-.136-.503.498-.773 1.403-1.662 5.344-6.456 11.865-10.669 14.492-5.76 3.577-10.591 4.71-20.062 4.664-6.958 0-9.78-.317-17.82-2.128-8.04-1.812-10.707-2.627-17.587-5.253-2.86-1.132-5.528-2.174-5.876-2.355-.425-.181-.696-.136-.696.181 0 .68-2.242 4.981-3.595 6.838-2.048 2.763-6.146 6.748-10.514 10.144-4.058 3.17-9.393 7.065-9.663 7.065-.078 0-2.01 1.358-4.33 2.988-3.633 2.627-4.986 3.986-10.591 10.688-3.556 4.257-6.533 7.517-6.61 7.336-.116-.226-.155-.181-.077.136.116.498-1.005 1.947-1.508 1.947-.154 0-.309-.18-.309-.453zm49.94-100.468c-.118-1.498-.157-1.498-2.142-1.498-1.09 0-1.986-.09-1.947-.227 0-.136-.623-1.725-1.402-3.496l-1.44-3.314h-2.337c-1.323 0-2.336.182-2.336.454 0 .636 2.259 5.811 3.232 7.4 1.012 1.68 1.791 1.998 5.451 2.089l3.037.09-.117-1.498zM277.553 270.543c-.151-.354-.19-.709-.114-.827s4.648-.236 10.126-.295c16.587-.118 16.624-.118 16.624.886 0 .767-1.7.885-13.186.885-8.954 0-13.3-.177-13.45-.65z"/>
                <path d="M135.898 225.833c-1.487-.93-2.478-3.41-2.935-7.438-.534-4.516-.534-5.136.152-5.136.305 0 .572.132.61.354.572 7.97 1.296 10.626 3.05 11.335 1.79.708 3.049-.089 6.708-4.34 2.44-2.833 4.002-4.294 5.07-4.693 1.295-.487 1.524-.752 1.524-1.86 0-.708.19-1.24.496-1.24.533 0 2.935 2.657 2.935 3.233 0 .177-.61 1.063-1.373 1.948-1.372 1.594-1.905 1.55-2.134-.133-.115-.797-.267-.84-1.372-.53-.877.265-2.364 1.682-4.574 4.294-1.83 2.17-3.698 4.162-4.155 4.428-1.144.664-2.783.575-4.002-.222zM170.922 186.942c.792-.161 1.131-.485 1.131-1.051 0-.769-.34-.81-5.09-1.011-4.262-.203-3.508-.243 4.374-.324 10.295-.08 11.276.08 10.37 1.86-.414.85-.64.89-6.184.85-3.168-.04-5.204-.162-4.601-.324zM212.262 181.205c-.885-.91-1.887-1.518-2.503-1.518-.54 0-1.001-.173-1.001-.39 0-.477.885-3.252 1.771-5.464.385-.954.655-1.865.617-1.995 0-.174.693 0 1.579.347.885.347 1.925.694 2.272.78.385.087 1.155.434 1.733.738 1.002.52 1.079.78 1.194 3.73.116 2.861.039 3.208-.847 4.206-1.387 1.561-2.966 1.431-4.815-.434zM144.3 166.297V159l3.1 3.693a266.12 266.12 0 0 0 6.279 7.297l3.177 3.604H144.3v-7.297z"/>
            </g>
            <g fill="#11A9EB">
                <path d="M175.273 374.731c0-4.193 1.816-8.932 4.947-12.806 3.634-4.466 8.466-7.019 14.186-7.429 3.247-.273 6.34.274 12.138 2.097 2.899.911 3.517.957 5.411.455 5.489-1.367 8.659-4.512 13.915-13.763 1.083-1.914 1.972-3.6 1.972-3.737s.85-1.823 1.932-3.783c1.392-2.506 1.779-3.6 1.43-3.874-.309-.228-.309-.364-.038-.364 1.082 0 1.353 1.23.618 2.78-6.57 13.535-11.093 20.007-15.886 22.605-2.745 1.504-2.977 1.595-6.378 1.367-2.01-.137-4.754-.638-6.417-1.23-3.826-1.322-9.972-1.505-13.335-.32-7.46 2.598-12.176 8.614-13.374 17.09-.541 3.829-1.121 4.285-1.121.912zM277.017 351.453c-5.8-2.742-8.232-3.793-8.718-3.793-.412 0 .374-3.428 2.47-10.65.037-.229 2.544 1.051 5.5 2.834 2.993 1.782 5.836 3.29 6.36 3.29.823.092.823.092.112.275-.748.183-1.122 1.051-1.496 3.565-.075.503-.337 1.737-.561 2.742-.225 1.006-.45 2.011-.45 2.24-.074.777-.748.64-3.217-.503zM274.71 331.3c-3.341-.503-6.604-2.38-10.565-6.134-1.826-1.694-3.962-3.617-4.739-4.258-4.467-3.48-11.07-4.35-15.07-2.014-1.165.686-2.098 1.465-2.059 1.74.078.411-.155.411-.815.045l-.894-.503 1.01-.916c2.874-2.701 6.137-3.708 10.06-3.022 4.777.779 7.03 2.106 12.623 7.371 4.506 4.304 6.797 5.632 10.837 6.41 2.447.458 3.69.458 6.603 0 13.438-2.198 19.032-6.272 30.995-22.48 9.749-13.23 13.244-16.756 18.798-18.816 2.797-1.053 4.506-1.145 4.506-.183 0 .412-.388.687-1.01.687-1.709 0-5.01 1.327-7.302 2.975-3.34 2.381-6.642 5.998-11.536 12.682-8.739 11.95-14.565 18.45-19.459 21.564-5.554 3.617-15.614 5.814-21.984 4.853zM126.855 311.065c-.038-.226-.077-.724-.115-.996-.039-.317-.27-.544-.501-.499-.231.046-3.006-3.171-6.128-7.158-6.09-7.793-6.282-8.337-2.967-7.974 1.31.181 2.042.68 3.738 2.446 2.235 2.402 3.854 3.081 6.166 2.538 1.657-.408 3.623-2.855 17.381-21.657 16.148-22.155 19.347-26.414 20.542-27.32.925-.725 3.93-.77 42.162-.77 34.107 0 41.121.09 40.967.589-.116.362-.193 1.042-.193 1.586 0 .815-.077.906-.424.317-.347-.544-.385-.499-.231.362.116.544.077.906-.077.816-.154-.136-.501.498-.77 1.404-1.658 5.346-6.437 11.87-10.638 14.498-5.742 3.58-10.56 4.712-20.002 4.667-6.937 0-9.75-.317-17.766-2.13-8.016-1.812-10.676-2.627-17.535-5.255-2.852-1.133-5.512-2.175-5.858-2.356-.424-.181-.694-.136-.694.181 0 .68-2.235 4.984-3.584 6.842-2.043 2.763-6.128 6.75-10.483 10.148-4.047 3.172-9.365 7.068-9.635 7.068-.077 0-2.004 1.36-4.316 2.99-3.623 2.628-4.972 3.987-10.56 10.693-3.545 4.259-6.513 7.52-6.59 7.34-.116-.227-.154-.182-.077.135.115.499-1.002 1.949-1.503 1.949-.154 0-.309-.182-.309-.454zM277.553 270.854c-.151-.353-.19-.706-.114-.824s4.648-.236 10.126-.294c16.587-.118 16.624-.118 16.624.883 0 .765-1.7.883-13.186.883-8.954 0-13.3-.177-13.45-.648zM268.883 244.875c.577-.983.577-1.385.154-3.218-.654-2.905-.692-2.905-1.654-1.296-.461.805-1.23 1.52-1.692 1.61-.462.089-.846.089-.846-.046 0-.089.692-1.787 1.577-3.754 1.077-2.502 1.615-4.469 1.807-6.435l.27-2.86 2.038-.492 2-.536-.23 2.1c-.116 1.117-.039 3.576.23 5.408.885 6.927.885 6.882.116 8-.423.58-1.577 1.43-2.577 1.877l-1.808.804.615-1.162zM180.31 226.9c-.853-.589-2.713-1.99-4.146-3.12-1.434-1.175-2.945-2.214-3.37-2.395-1.59-.588-.814-1.175 1.123-.86l1.937.317v-4.655h-16.156l-2.053-5.063c-1.163-2.802-2.906-7.141-3.952-9.627-1.007-2.486-1.86-4.746-1.86-5.063 0-.497 2.325-.542 22.936-.18l3.797.045 1.588 3.977c.891 2.17 2.712 6.645 4.068 9.944l2.48 5.967h12.01v4.52h-6.78c-3.913 0-6.78.18-6.78.407 0 .226.349.497.775.587.697.136.62.362-.697 3.074-1.705 3.435-2.519 3.751-4.92 2.124zm-4.317-16.916c-.117-1.494-.156-1.494-2.141-1.494-1.09 0-1.986-.09-1.947-.227 0-.135-.623-1.72-1.402-3.485l-1.44-3.305h-2.337c-1.324 0-2.336.181-2.336.453 0 .634 2.258 5.794 3.232 7.379 1.012 1.674 1.79 1.991 5.45 2.082l3.038.09-.117-1.493zM135.898 226.275c-1.487-.927-2.478-3.399-2.935-7.416-.534-4.503-.534-5.121.152-5.121.305 0 .572.132.61.353.572 7.946 1.296 10.595 3.05 11.302 1.79.706 3.049-.089 6.708-4.327 2.44-2.825 4.002-4.282 5.07-4.68 1.295-.485 1.524-.75 1.524-1.854 0-.706.19-1.236.496-1.236.533 0 2.935 2.65 2.935 3.223 0 .177-.61 1.06-1.373 1.942-1.372 1.59-1.905 1.546-2.134-.132-.115-.795-.267-.839-1.372-.53-.877.265-2.364 1.678-4.574 4.283-1.83 2.163-3.698 4.15-4.155 4.414-1.144.662-2.783.574-4.002-.22zM218.912 197.48c0-2.376-.914-6.814-1.668-7.8-.238-.358-.12-.672.476-1.03 1.192-.718 2.383-3.093 2.383-4.796 0-1.076.198-1.48.635-1.48s.556.225.397.718c-.278.806 2.423 3.854 4.17 4.661l1.032.493-3.296 5.558c-1.866 3.048-3.534 5.692-3.732 5.827-.239.179-.397-.673-.397-2.152zM170.922 187.498c.792-.16 1.131-.484 1.131-1.048 0-.766-.34-.807-5.09-1.008-4.262-.202-3.508-.242 4.374-.323 10.295-.08 11.276.08 10.37 1.855-.414.847-.64.887-6.184.847-3.168-.04-5.204-.161-4.601-.323zM191.233 185.552c-1.227-.595-17.757-20.671-18.217-22.135-1.265-4.024 2.416-8.506 5.868-7.18.805.32 4.18 4.025 9.971 10.93 7.977 9.513 8.783 10.61 8.974 12.302.499 4.39-3.183 7.82-6.596 6.083zm4.831-1.77c.74-.829.974-1.565.974-2.946 0-1.795-.234-2.117-8.918-12.38-8.724-10.356-8.919-10.586-10.554-10.632-1.363-.046-1.792.184-2.765 1.473-2.26 2.946-2.103 3.222 7.321 14.452 3.7 4.395 6.843 9.118 9.269 10.69 2.395 1.551 4.093-.017 4.673-.657zM212.262 181.778c-.885-.908-1.887-1.513-2.503-1.513-.54 0-1.001-.173-1.001-.39 0-.475.885-3.242 1.771-5.448.385-.951.655-1.86.617-1.989 0-.173.693 0 1.579.346.885.346 1.925.692 2.272.778.385.087 1.155.433 1.733.736 1.002.518 1.079.778 1.194 3.718.116 2.854.039 3.2-.847 4.194-1.387 1.557-2.966 1.427-4.815-.432z"/>
            </g>
            <g fill="#92A4A5">
                <path d="M277.716 351.01c-5.836-2.742-8.283-3.793-8.773-3.793-.414 0 .377-3.427 2.485-10.645.038-.229 2.56 1.05 5.535 2.832 3.012 1.782 5.874 3.29 6.4 3.29.83.091.83.091.114.274-.753.183-1.13 1.05-1.506 3.564-.076.502-.34 1.736-.565 2.741-.226 1.005-.452 2.01-.452 2.239-.075.776-.753.64-3.238-.503zM131.275 300.227L129 297.5l2.776-3.636 2.815-3.682 2.66 2.59 2.7 2.546-3.2 3.818-3.2 3.773-2.276-2.682zM269.531 245.326c.581-1.032.581-1.454.155-3.377-.658-3.05-.696-3.05-1.664-1.36-.465.844-1.239 1.594-1.703 1.688-.465.094-.852.094-.852-.047 0-.094.697-1.876 1.587-3.94 1.084-2.627 1.626-4.69 1.82-6.755l.27-3.002 2.052-.516 2.012-.562-.232 2.204c-.116 1.173-.039 3.753.232 5.676.89 7.27.89 7.223.116 8.396-.425.61-1.586 1.501-2.593 1.97l-1.819.844.62-1.22zM181.402 226.505c-.88-.588-2.802-1.99-4.284-3.12-1.481-1.176-3.042-2.216-3.483-2.397-1.961-.678-.48-.904 4.764-.769 3.083.136 6.526.407 7.607.724l1.961.497-1.48 2.94c-1.762 3.437-2.603 3.753-5.085 2.125zM219.245 198.008c0-2.375-.919-6.81-1.678-7.796-.24-.358-.12-.672.48-1.03 1.198-.717 2.397-3.092 2.397-4.794 0-1.076.2-1.479.64-1.479.439 0 .559.224.399.717-.28.806 2.437 3.853 4.195 4.66l1.04.492-3.317 5.556c-1.878 3.046-3.556 5.69-3.756 5.824-.24.18-.4-.672-.4-2.15zM212.506 181.353c-.9-.938-1.915-1.564-2.54-1.564-1.252 0-1.252-.268 0-3.931 1.367-3.977 1.602-4.2 3.282-3.62.743.224 1.68.537 2.033.626.39.09 1.172.447 1.759.76 1.016.536 1.094.804 1.211 3.842.117 2.949.04 3.306-.86 4.334-1.407 1.608-3.01 1.474-4.885-.447z"/>
            </g>
        </g>
    </g>
</svg>
