<svg xmlns="http://www.w3.org/2000/svg" xmlns:xlink="http://www.w3.org/1999/xlink" width="450" height="451" viewBox="0 0 450 451">
    <defs>
        <path id="b" d="M0 0h442v442H0z"/>
        <filter id="a" width="103.8%" height="104.1%" x="-1.9%" y="-1%" filterUnits="objectBoundingBox">
            <feOffset dy="5" in="SourceAlpha" result="shadowOffsetOuter1"/>
            <feGaussianBlur in="shadowOffsetOuter1" result="shadowBlurOuter1" stdDeviation="2"/>
            <feColorMatrix in="shadowBlurOuter1" values="0 0 0 0 0 0 0 0 0 0 0 0 0 0 0 0 0 0 0.5 0"/>
        </filter>
    </defs>
    <g fill="none" fill-rule="evenodd">
        <g transform="translate(4)">
            <use fill="#000" filter="url(#a)" xlink:href="#b"/>
            <use fill="#007BFF" xlink:href="#b"/>
        </g>
        <path fill="#FFF" d="M332.28 130.338c52.475 75.07 59.386 195.503-9.877 241.782-68.467 45.746-222.733-34.251-265.585-57.73-42.851-23.48-46.99-48.942-19.205-98.314 55.97-99.456 25.241-141.182 115.781-85.738 41.97 25.7 126.41-75.07 178.886 0z"/>
        <text fill="#FFF" font-family="AvenirNext-Bold, Avenir Next" font-size="48" font-weight="bold" transform="translate(4)">
            <tspan x="83" y="76">Breakdown</tspan>
        </text>
        <g fill-rule="nonzero">
            <g fill="#243243">
                <path d="M103.048 336.394c-.125-.437 0-.874.291-1.092 1.124-.728 231.661 0 231.661.728 0 1.019-231.577 1.383-231.952.364zM264.838 327.093c-.97-.478-4.262-1.767-7.385-2.866-11.141-3.916-16.248-5.874-17.894-6.925l-1.688-1.098-.253-7.355c-.126-4.059-.38-7.88-.548-8.452-.338-1.194.548-2.627 2.785-4.442l1.14-.955 3.502 2.15c4.094 2.53 8.567 4.631 11.521 5.491 3.419 1.003 3.334.955 2.786 1.672-.422.573-3.292 1.385-6.71 1.91-.507.095-1.056.286-1.182.382-.085.143 1.941 1.815 4.558 3.725 12.07 8.835 15.53 11.51 15.53 11.844 0 .477-3.798 5.826-4.136 5.826-.169 0-1.055-.43-2.026-.907zM141.058 311.417c-.123-.384-.041-.897.164-1.11.205-.213 4.14-.342 9.594-.299 8.856.128 9.184.17 9.184.982 0 .81-.328.854-9.348.982-8.2.085-9.348 0-9.594-.555zM141.297 307.198c-.368-.551-.409-.902-.04-1.403.653-1.052 17.773-1.052 18.467-.05.368.551.368.852 0 1.403-.776 1.102-17.691 1.152-18.427.05zM141.058 302.417c-.123-.384-.041-.897.164-1.11.205-.213 4.14-.342 9.594-.299 8.856.128 9.184.17 9.184.982 0 .81-.328.854-9.348.982-8.2.085-9.348 0-9.594-.555zM141.255 297.354c-.366-.564-.325-.923.041-1.488.774-1.18 17.598-1.129 18.331 0 1.182 1.745-.081 2.053-9.165 2.104-7.007.103-8.84-.051-9.207-.616zM141.058 292.417c-.123-.384-.041-.897.164-1.11.205-.213 4.14-.342 9.594-.299 8.856.128 9.184.17 9.184.982 0 .81-.328.854-9.348.982-8.2.085-9.348 0-9.594-.555zM133.113 277.642c-.375-.622.084-.813 2.881-1.243 4.009-.622 7.558-3.682 10.648-9.084.96-1.673 3.215-6.789 5.01-11.379 5.26-13.243 7.307-16.59 11.482-18.789l2.171-1.147 26.806.096c17.41.095 26.805.286 26.889.621.042.335-9.353.574-27.265.717l-27.348.24-2.005 1.338c-1.085.765-2.63 2.343-3.423 3.586-1.462 2.342-4.677 9.466-6.055 13.53-3.674 10.566-8.559 18.024-13.57 20.558-2.337 1.195-5.845 1.72-6.22.956zM241.67 254.476c-1.715-.329-6.44-1.176-10.454-1.835-15.137-2.587-18.65-3.293-19.527-3.952-1.004-.705-.878-1.74.167-1.317.46.235.543.094.376-.424-.125-.423 0-.847.293-.94.502-.236 32.74 5.222 33.326 5.645.418.283-.125 3.2-.627 3.341-.251.047-1.84-.188-3.554-.518zM257.408 223.497c-1.431-1.959 1.209-8.13 3.177-7.444 1.7.539 1.835 1.077.582 2.694-.671.832-1.61 2.4-2.103 3.428-.984 2.106-.984 2.155-1.656 1.322zM261 214.93a81.322 81.322 0 0 1-3.873-2.042c-.968-.558-2.063-1.022-2.442-1.022-.337 0-.884-.557-1.179-1.254-.252-.743-.758-1.532-1.094-1.81-1.348-1.161.59-1.068 6.146.325 6.231 1.532 6.442 1.625 6.442 2.321 0 .51-1.642 4.643-1.81 4.55-.042-.046-1.01-.51-2.19-1.067zM255.26 215.254c-.311-.55-.35-.881-.078-1.157.543-.44 2.057.717 1.786 1.433-.35.716-1.204.606-1.709-.276zM261.56 208.473c-.747-.646-.747-.692 0-2.444 1.337-3.18 3.854-2.443 3.382.968-.236 1.614-.433 1.844-1.455 1.983-.668.092-1.533-.139-1.927-.507z"/>
            </g>
            <g fill="#014874">
                <path d="M114.255 335.745c-.625-1.221-2.583-14.065-2.208-14.517.292-.272 7.705-.317 7.913-.046.209.272-.416 4.387-1.54 9.905l-.917 4.749-1.54.135c-.834.09-1.583-.045-1.708-.226zM182.796 335.228c-.43-1.05-1.718-9.817-1.757-12.237l-.039-1.826 3.279-.137c1.795-.091 3.435.046 3.669.32.39.456-1.522 13.15-2.186 14.108-.546.822-2.537.685-2.966-.228zM330.066 336.295c-.374-.857.935-1.713 1.636-1.07.28.213.374.784.234 1.141-.374.857-1.496.857-1.87-.071zM229.872 326.387c-.33-.429-.951-3.242-1.448-6.246-.827-5.294-1.406-8.44-2.689-15.499-.372-1.812-1.655-9.108-2.896-16.213-1.283-7.057-2.441-13.638-2.607-14.544-.538-2.623-.165-4.054 1.366-5.913 2.068-2.432 3.31-2.528 9.102-.763a338.15 338.15 0 0 0 6.164 1.907c1.697.525 15.557 4.816 23.376 7.248 3.517 1.097 7.737 2.623 9.31 3.386 1.696.81 3.558 1.383 4.51 1.335 2.11-.047 2.73.62 2.73 3.005 0 1.45 1.336 10.794-2.73 16.5-2.222 3.115-10.066 4.434-11.337 4.434-2.193 0-4.179-.095-4.386-.238-.207-.144-1.655-.716-3.268-1.288-5.627-2.05-14.853-7.773-18.784-11.683l-1.034-1.002.745 1.336c.993 1.86 2.275 6.676 2.73 10.348.786 6.247.166 22.46-.869 23.604-.33.334-2.027.716-3.971.811-2.772.19-3.559.095-4.014-.525zM254.067 323.654c-.164-.361-.492-.578-.698-.578-.205 0-.369-.217-.369-.506 0-.578.123-.65.739-.506.164.072.492.145.697.217.534.072.78 1.445.329 1.662-.206.145-.534 0-.698-.289zM142.448 312.222c-.458-.526-.583-.92-.291-1.14.416-.219.582 0 .54.658 0 .132 4.076.22 9.11.22 5.74 0 9.15.175 9.191.438.084.263-3.12.482-8.859.57-8.402.087-9.026.044-9.691-.746zM310.11 312.439c-.294-.864.041-3.714.544-4.232.251-.26 1.508-.26 3.308-.087 2.68.303 2.89.432 3.016 1.469.084.604-.084 1.597-.293 2.245-.419 1.123-.587 1.166-3.393 1.166-2.094 0-3.015-.173-3.183-.561z"/>
                <path d="M149.066 311.295c-.374-.857.935-1.713 1.636-1.07.28.213.374.784.234 1.141-.374.857-1.496.857-1.87-.071zM142.327 307.606c-.428-.435-.428-.712-.043-1.146.556-.593 1.797-.633 1.712 0 0 .197-.257.316-.471.237-.257-.08-.342.158-.214.474.342.83-.342 1.146-.984.435zM159.105 307.845c-.348-.46.232-.967.812-.69.387.183.542.045.464-.369-.077-.368.039-.736.271-.783.193-.046.348.369.348.921 0 .69-.232 1.013-.85 1.059-.465.046-.929 0-1.045-.138zM152.078 306.666c-.324-.506.325-.71 2.594-.658 1.159 0 2.178.253 2.317.506.278.507-4.633.71-4.91.152zM91.126 303.41c-.124-.373-.166-1.35-.083-2.235l.125-1.537 2.91-.046c1.62-.047 3.116-.093 3.324-.14.25 0 .374-2.84.333-7.636a1592.23 1592.23 0 0 1-.084-11.081c-.041-3.213-.124-3.585-.914-3.818-.706-.233-.831-.559-.706-2.514l.124-2.235 5.362-.14c3.657-.093 5.527.046 5.943.419.415.419.54 1.35.457 3.166-.125 2.468-.208 2.608-1.247 2.747-1.538.186-1.455.792.083 1.444l1.247.465-.083 11.78-.125 11.78-8.229.14c-6.816.093-8.229 0-8.437-.56zM142.382 302.201c-.418-.51-.501-.882-.209-1.114.417-.232.584 0 .543.696 0 .14 4.09.232 9.142.232 5.802 0 9.142.186 9.142.464 0 .279-3.298.465-8.975.511-8.015.046-9.059-.046-9.643-.789z"/>
                <path d="M143.053 301.303c-.303-.905.758-1.671 1.555-1.114.758.557.341 1.811-.607 1.811-.38 0-.834-.348-.948-.697zM146.048 301.412c-.125-.464 0-.928.291-1.16.916-.618 5.534 0 5.659.774.125 1.005-5.617 1.391-5.95.386zM154.086 300.69c-.367-.591.366-.727 3.709-.682 1.785.046 3.205.227 3.205.5 0 .546-6.594.682-6.914.182zM142.157 297.341c-.275-.43-.183-.781.23-1.094.735-.507 1.24-.195.872.586-.137.352.046.508.597.469.505-.078.964.078 1.102.273.413.704-2.341.47-2.8-.234zM152.053 298.303c-.303-.905.758-1.671 1.555-1.114.758.557.341 1.811-.607 1.811-.38 0-.834-.348-.948-.697zM158.068 297.704c-.297-.582.408-.94 1.485-.716.63.134.927.044.853-.313-.074-.314.037-.627.26-.672.186-.044.334.358.334.895 0 .76-.223.984-1.336 1.074-.78.09-1.484-.045-1.596-.268zM142.408 292.258c-.583-.696-.541-.882.124-1.578.707-.65 1.83-.742 9.69-.65 5.657.093 8.86.325 8.776.604-.041.278-3.452.464-9.15.464-5.905 0-9.108.185-9.108.464 0 .278 1.206.464 2.953.464 1.705 0 2.953.185 2.953.464 0 .278-1.248.464-2.828.51-2.08 0-2.953-.186-3.41-.742zM153.088 292.676c-.348-.535.304-.714 2.607-.67 1.217 0 2.217.269 2.304.492.087.536-4.607.714-4.911.178zM133.382 277.345c-.364-.492-.468-.984-.312-1.169.416-.553 2.753.308 2.909 1.046.26.984-1.922 1.045-2.597.123zM136.31 277.273c-.292-.46-.389-.979-.243-1.151.487-.519 2.192.748 1.9 1.382-.439.748-1.023.633-1.656-.23zM138.228 276.496c-.399-.606-.319-.808.598-1.262.558-.253 1.395-.707 1.794-1.01.518-.353.837-.303 1.195.252.36.556.24.859-.757 1.515-.678.404-1.236.656-1.236.454s-.239-.05-.558.253c-.398.454-.638.404-1.036-.202zM142.306 273.72c-.46-.433-.409-.67.204-1.062.408-.276.766-.354.766-.197 0 .157.306.079.714-.157 1.276-.826 1.379.196.102 1.1-.97.708-1.276.748-1.786.315z"/>
                <path d="M145.123 271.974c-.206-1.576-.171-2.033.24-2.541.274-.305.48-.508.514-.407.206 1.576.171 2.033-.24 2.541-.274.305-.48.508-.514.407zM148.166 265.472c-.378-.431-.126-1.39.925-3.789 1.304-2.974 2.314-4.173 2.902-3.502.169.24-2.944 7.819-3.238 7.819-.084 0-.337-.24-.589-.528zM242.416 262.563c-1.619-.383-7.72-1.53-11.415-2.104-.664-.143-1.66-.335-2.2-.478-.54-.144-3.072-.574-5.604-.956-2.574-.383-6.808-1.1-9.423-1.578l-4.774-.86.083-2.821c.125-3.443.457-3.92 2.242-2.87l1.411.766-1.37-1.243c-1.37-1.291-1.453-2.343-.166-1.817.623.287.623.24.125-.478-.457-.67-.457-.86.083-1.1.373-.143.871-.143 1.12.048.208.144.416.191.416.096 0-.144-.665-.67-1.453-1.243-1.412-.957-1.495-1.1-1.204-2.773.124-1.004.373-1.96.54-2.104.249-.335 9.132 1.1 23.08 3.634 3.902.717 8.51 1.577 10.253 1.864 1.743.287 3.404.765 3.653 1.052.29.335.249 1.817-.166 5.02a204.619 204.619 0 0 0-.955 7.363c-.374 3.251-.706 3.442-4.276 2.582zm3.457-9.965c-.125-.199-7.212-1.588-15.76-3.176-14.34-2.63-15.55-2.778-16.009-2.034-.583.943.75 1.24 17.97 4.317 4.127.744 8.921 1.587 10.63 1.934 2.627.497 3.17.497 3.253-.099.083-.347.041-.794-.084-.942zM152.169 255.687c-.23-.42-.23-.725.025-1.221.28-.572.382-.61.637-.153.23.42.23.725-.025 1.221-.28.572-.382.61-.637.153zM153.226 253.593c-.418-.404-.279-1.076.604-2.734.975-1.792 1.3-2.106 1.811-1.703.558.448.511.852-.464 2.734-1.3 2.464-1.254 2.375-1.95 1.703zM92.196 247.657c-.834-.238-1.084-.618-1.167-1.9-.209-2.422.625-2.85 5.336-2.85h4.003l.042-14.059c0-8.36.208-14.249.417-14.486.25-.285 1.626-.428 3.085-.333l2.668.143.125 2.707.125 2.707 2.585.143 2.585.142v11.4l-1.96-.143-2-.142-.042 5.367c0 2.944 0 6.554.041 8.027.042 1.662-.167 2.802-.5 3.134-.584.57-13.383.665-15.343.143zM156.036 245.856c-.122-.149.081-.941.408-1.734.49-1.188.734-1.337 1.183-.89.408.445.49.84.204 1.485-.408.94-1.428 1.584-1.795 1.139zM159.092 242.91c-.22-1.245-.088-1.693.884-2.888.84-1.046 1.194-1.245 1.68-.797.443.398.443.697.089 1.195-.398.548-.663.548-1.105.15-.443-.399-.531-.3-.398.447.088.598-.133 1.295-.487 1.643-.353.3-.663.448-.663.25zM162.225 238.594c-.421-.632-.295-.947.758-1.631.717-.421 1.307-.684 1.307-.474 0 .21.252.105.547-.21.759-.79 2.697.263 2.023 1.105-.38.473-.674.473-1.264 0-.674-.527-.97-.421-1.854.684-.885 1.104-1.096 1.157-1.517.526zM119.875 229.94c-.212-.627-.51-2.507-.68-4.243-.212-1.735-.424-3.47-.466-3.856-.595-3.76-.892-7.569-.637-7.858.212-.24 1.188-.53 2.208-.675 3.863-.578 3.439-1.35 4.713 8.05.637 4.629 1.061 8.726.976 9.064-.127.385-1.146.578-2.972.578-2.505 0-2.802-.096-3.142-1.06zM185.343 230.586c-.336-.577.126-1.876 2.769-8.176 1.049-2.5 2.517-5.963 3.188-7.695a793.34 793.34 0 0 1 2.769-6.588l1.468-3.511H187.4c-6.335 0-8.223-.144-8.39-.625-.084-.337.461-2.26 1.258-4.28l1.426-3.607 15.522-.097c8.81-.048 15.648.145 15.774.385.125.24-.798 2.982-2.098 6.108-1.3 3.174-2.81 6.925-3.398 8.368-2.979 7.358-6.502 15.87-7.341 17.794l-.965 2.164-6.796.145c-4.447.096-6.88-.048-7.048-.385zM258.16 222.832c-.345-.675-.086-2.832.346-2.832.518 0 .69 2.607.216 2.922-.216.134-.432.09-.562-.09zM260.044 217.782c-.113-.203 0-.744.227-1.218.302-.677.604-.744 1.171-.203.416.406.642.88.529 1.15-.302.474-1.662.677-1.927.271zM261.929 215.39c-.916-.427-1.736-.777-1.784-.738-.097 0-.145-.039-.145-.155v-.427c0-.156.338-.04.723.233.386.272.724.388.724.233 0-.156.675.039 1.494.388.82.311 1.35.428 1.206.233-.193-.233-.097-.505.145-.621.868-.466.964.427.144 1.049-.771.582-1.012.582-2.507-.195zM255.22 215.588c-.407-.635-.222-1.588.331-1.588.148 0 .59.272.96.635.664.59.664.636-.074 1.09-.59.408-.886.362-1.218-.137zM257.203 213.242c-.78-.433-1.3-.944-1.188-1.141.149-.236.854-.04 1.708.393.817.473 1.374.984 1.263 1.18-.26.473-.074.512-1.783-.432zM263.913 210.667c-.191-.263-.62-.35-.955-.22-.382.132-.812.045-.955-.218-.191-.263-.621-.35-.956-.219-.811.307-1.432-.525-.764-.919.287-.175.812-.087 1.147.175.334.263.764.35.907.219.143-.131.573-.088.907.087.335.22.86.394 1.099.394.669 0 .907.832.334 1.007a.668.668 0 0 1-.764-.306zM252.665 209.227c-.697-.625-.827-.955-.479-1.139a.908.908 0 0 1 .959.11c.261.22.697.294 1.002.22.305-.11.697-.036.828.148.13.22.654.294 1.09.183.435-.11.958 0 1.089.22.174.184.566.295.871.184.74-.22 1.351.441.697.772-.218.11-.697.11-.958-.074-.305-.147-.872-.22-1.308-.183-.392.073-.827-.074-1.002-.294-.218-.294-.523-.257-1.046.147-.697.55-.827.514-1.743-.294z"/>
                <path d="M262.423 209.907c-.03-.154-.06-.463-.091-.668a4.467 4.467 0 0 0-.241-.977c-.121-.309-.121-.72 0-.925.12-.206.21-.617.21-.874s.091-.463.242-.463h.393c.12 0 .06.308-.09.668-.333.72-.333 1.388 0 2.262.12.309.09.72-.091.925-.151.155-.332.206-.332.052zM265.342 206.638c-.123-.23-.123-.598-.03-.736.091-.138.03-.552-.154-.874-.215-.369-.215-.645.03-.875.46-.414.706 0 .799 1.38.092 1.243-.307 1.934-.645 1.105zM91.454 190.464c-.248-.285-.454-1.237-.454-2.094 0-1.666.867-2.523 2.56-2.523h.95l.04-11.662c.042-6.427-.082-11.568-.247-11.425-.66.476-1.28-1.19-1.156-2.951L93.27 158h25.598l-.083 1.809c-.082 1.952-.784 3.38-1.527 3.046-.454-.238-.496 21.516-.042 22.897.207.571 2.354.666 14.699.38 9.702-.19 14.698-.142 15.276.191.908.571 1.115 3.38.29 4.141-.785.715-55.409.715-56.028 0zM110 164.968c0-.795-.788-1.033-3.15-.954-3.85.16-3.85.16-3.85 1.192 0 .476 1.444.794 3.5.794 2.625 0 3.5-.238 3.5-1.032z"/>
            </g>
            <g fill="#1274A4">
                <path d="M149.11 337.16c-.128-.492-.154-.985-.025-1.119.283-.313 1.106 1.254.874 1.657-.283.537-.566.358-.849-.538zM139.042 337.4c-.111-.36 0-.937.332-1.153.777-.577 2.626-.073 2.626.792 0 1.01-2.663 1.37-2.958.36zM209.085 336.676c-.298-.447.213-.716 1.149-.671.426.045.766.268.766.492 0 .537-1.617.716-1.915.179zM296.047 337.394c-.124-.347 0-.901.332-1.109 1.08-.692 33.704 0 33.62.762-.165.97-33.578 1.386-33.952.347zM331.053 337.303c-.303-.905.758-1.671 1.555-1.114.758.557.341 1.811-.607 1.811-.38 0-.834-.348-.948-.697zM112.065 321.685c-.335-.616.586-.748 3.81-.66 4.229.088 4.145.924-.126.968-1.884.044-3.559-.132-3.684-.308zM141.43 312.622c-1.134-2.086-.131-2.668 4.317-2.62 4.143.05 4.404.97.349 1.116-4.71.097-4.536.049-3.969.825.349.437.349.776.087.97-.218.194-.567.049-.785-.29z"/>
                <path d="M159.723 312.926c-.122-.19-.082-.665.081-1.092.325-.665-.163-.76-4.677-.76-3.01 0-5.084-.19-5.124-.475-.082-.285 1.748-.522 4.799-.57 4.473-.094 5.043 0 5.694.855.65.807.65.997.122 1.662-.326.38-.733.57-.895.38zM330.234 311.85c-.515-1.93-.103-2.59.489-.812.283.914.36 1.472.18 1.828-.18.355-.386 0-.669-1.016zM141.26 302.533c-.894-1.292.717-3.321 1.79-2.214.448.461.314.692-.536 1.015-1.074.46-.94.6.582.691.447.047.85.277.895.508.179.6-2.283.646-2.73 0zM149.076 303.682c-.302-.487.302-.682 1.66-.682.654 0 1.208.244 1.258.487.15.537-2.566.732-2.918.195zM153.085 303.676c-.298-.447.213-.716 1.149-.671.426.045.766.268.766.492 0 .537-1.617.716-1.915.179zM144.066 301.295c-.374-.857.935-1.713 1.636-1.07.28.213.374.784.234 1.141-.374.857-1.496.857-1.87-.071zM150.097 300.706c-.374-.6.29-.77 2.7-.685 1.288 0 2.243.214 2.202.47-.125.514-4.611.728-4.902.215zM94.082 300.714c-.3-.531.214-.753 1.715-.708.729.044 1.243.221 1.2.487-.128.531-2.615.709-2.915.221zM141.24 292.502c-.63-.935.09-2.952.902-2.411.27.197.27.541-.09.984-.496.689-.406.787 1.037.885.45.05.857.296.902.542.18.64-2.3.688-2.75 0zM147.044 294.405c-.115-.357 0-.928.305-1.142.876-.643 4.651 0 4.651.785 0 1-4.651 1.357-4.956.357zM157.053 294.303c-.303-.905.758-1.671 1.555-1.114.758.557.341 1.811-.607 1.811-.38 0-.834-.348-.948-.697zM222.356 291.697c-.116-.29-.116-.676-.03-.82.088-.146.03-.58-.144-.918-.378-.773-.116-2.318.319-1.883.174.193.29.676.232 1.11-.029.483.029 1.11.174 1.449.145.386.116.869-.058 1.158-.174.29-.348.29-.493-.096zM105.739 280.254c-.87-.821-.913-1.063-.435-1.74.652-.869 1.435-.579 1.087.436-.174.386.087.724.696.821.478.097.913.387.913.628 0 .87-1.174.773-2.261-.145zM263.826 279.42c-.773-.352-1.015-.762-.677-1.173.628-.763 3.237.41 2.802 1.232-.338.704-.58.704-2.125-.059zM262.213 277.63c-.212-.347-.686-.463-1.056-.29-.897.406-1.583-.695-.844-1.217.317-.232.844-.116 1.214.174.369.348.791.638 1.055.638.422.058.58.637.211.985-.158.174-.422.058-.58-.29zM135.18 277.972c-.25-1.24-.25-1.64.07-1.84.68-.48 1.037.44.465 1.28-.286.4-.536.68-.536.56zM142.024 272.933c-.325-.413 2.737-3.624 3.294-3.44.186.091.325-.184.325-.505 0-1.147.603-1.33 1.113-.367.372.688.325 1.055-.185 1.468-.371.321-.696.413-.696.183 0-.183-.789.413-1.81 1.376-.974.964-1.902 1.56-2.04 1.285zM147.163 266.355c-.253-.634-.217-1.088.144-1.723.576-.952.576-.952.685.862.072 1.587-.325 1.995-.83.861zM149.028 262.77c-.11-.181.11-1.092.476-2.048.44-1.047.586-1.821.366-2.003-.22-.182-.146-.774.183-1.594.476-1.138.842-1.32 1.94-.956.037.046-.073.456-.293.956-.22.501-.549.82-.695.683-.183-.136-.403.091-.55.455-.109.365-.036.774.147.911.22.182.037 1.047-.366 2.094-.805 1.867-.842 1.958-1.208 1.503zM153.063 251.946c-.38-.536 1.068-4.192 1.516-3.802.242.244.31 0 .207-.634-.103-.536-.034-1.364.172-1.852.31-.877.345-.877.793 0 .38.731.345 1.17-.241 2.779-.38 1.023-.827 1.754-1 1.608-.206-.195-.344-.097-.344.098 0 .78-.862 2.144-1.103 1.803zM158.125 243.792c-.256-1.428-.102-2.485.307-2.538.307 0 .869-.37 1.38-.793.512-.53.92-.582 1.125-.265.307.529-.562 1.375-1.483 1.375-.255 0-.51.423-.51.899 0 .846-.717 2.01-.819 1.322zM211.066 241.295c-.374-.857.935-1.713 1.636-1.07.28.213.374.784.234 1.141-.374.857-1.496.857-1.87-.071zM162.49 237.674c-.698-.523-.657-.563.165-1.004.494-.241.905-.362.905-.201 0 .12.247.04.534-.201.74-.602 1.193-.12.7.763-.535 1.004-1.44 1.245-2.303.643zM166.19 236.921c0-.042-.083-.376-.167-.795-.208-1.045 1.043-1.421 1.669-.543.417.543.584.585.709.167.292-.836 11.804-.92 13.055-.084.834.544.96.544 1.21-.083.208-.544.375-.586.875-.167.5.418.751.418 1.252 0 .5-.419.75-.419 1.25 0 .418.334.793.376 1.169.083.667-.543 27.862-.585 28.53 0 .291.251.583.21.75-.083.417-.711 1.835-.46 2.294.376.209.46.292.92.125 1.004-.25.167-52.596.292-52.721.125zM107.047 231.4c-.126-.36 0-.937.38-1.153.886-.577 2.573-.073 2.573.792 0 1.01-2.615 1.37-2.953.36zM262.534 209.615c-.112-.292-.372-.39-.558-.244-.148.146-.483-.097-.743-.438-.334-.536-.297-.975.037-1.852.26-.633.446-1.267.409-1.462-.149-.73 1.821-1.998 2.193-1.51.297.39.074.73-.632 1.218-.818.487-1.078.974-1.078 2.095 0 .975.186 1.462.558 1.462.297 0 .594.195.669.487.185.682-.558.877-.855.244zM182.053 198.303c-.303-.905.758-1.671 1.555-1.114.758.557.341 1.811-.607 1.811-.38 0-.834-.348-.948-.697zM195.066 198.295c-.374-.857.935-1.713 1.636-1.07.28.213.374.784.234 1.141-.374.857-1.496.857-1.87-.071zM116.08 177.498c-.153-.453-.077-.996.152-1.267.306-.362.497-.317.688.271.153.453.077.996-.152 1.267-.306.362-.497.317-.688-.271zM116.08 169.498c-.153-.453-.077-.996.152-1.267.306-.362.497-.317.688.271.153.453.077.996-.152 1.267-.306.362-.497.317-.688-.271zM102.09 165.796c-.184-1.005-.074-2.184.22-2.228.22 0 .66-.175.99-.35.77-.436 1.833-.174 1.686.394-.073.262-.513.48-1.026.524-.514 0-1.064.087-1.247.087-.183.044-.11.306.11.612.22.35.293.742.147.873-.294.35-.844.393-.88.088zM109.102 165.846c-.148-.135-.148-.539 0-.898.147-.405-.099-.63-.738-.63-1.328 0-1.87-.808-.787-1.213 1.131-.404 2.312.405 2.41 1.618.099.988-.393 1.573-.885 1.123zM96.066 159.295c-.374-.857.935-1.713 1.636-1.07.28.213.374.784.234 1.141-.374.857-1.496.857-1.87-.071zM108.053 159.303c-.303-.905.758-1.671 1.555-1.114.758.557.341 1.811-.607 1.811-.38 0-.834-.348-.948-.697z"/>
            </g>
            <g fill="#E5243E">
                <path d="M222.046 335.296c-.366-1.19 1.503-2.906 4.265-3.811 3.087-1.049 3.859-1.859 3.534-3.812-.122-.953-.04-1.668.243-1.906.61-.429 7.678-1 7.88-.667.082.143 0 1.858-.202 3.812a559.2 559.2 0 0 0-.528 5.24l-.122 1.668-7.393.143c-6.621.096-7.434.048-7.677-.667zM266.047 336.226c-.325-1.065 1.095-3.194 2.555-3.726 1.825-.726 1.906-1.403.365-3l-1.38-1.452 2.029-3.048 2.068-3 3.529 2.226c1.906 1.258 3.61 2.42 3.772 2.564.162.194-.974 2.081-2.556 4.162-1.581 2.129-3.163 4.354-3.487 4.983-.568.92-.974 1.065-3.61 1.065-2.393 0-3.082-.145-3.285-.774zM301.974 312.566c-.6-1.068-2.156-6.808-1.956-7.164.319-.623 3.593-.49 4.032.178.678.89 2.195 6.497 1.916 6.986-.32.579-3.673.579-3.992 0zM297.246 300.9c-1.35-1.58-1.612-3.732-.74-5.598.827-1.77 1.437-1.483 2.22 1.1.306 1.005.785 1.58 1.395 1.675 1.22.191 1.612-.909 1.002-2.87-.654-2.01-.044-2.727 1.525-1.818 1.263.765 2.352 2.774 2.352 4.353 0 .574-.392 1.77-.915 2.631-.871 1.531-1.045 1.627-3.398 1.627-2.047 0-2.657-.191-3.441-1.1zM95.36 243.52c-.12-.24-.28-4.771-.32-9.977L95 224h5.952l.04 9.399c.04 5.783-.08 9.64-.32 10.025-.479.675-4.953.82-5.312.096zM111.141 230.505c-.125-.374-.167-4.208-.125-8.557l.125-7.948H117v16.832l-2.846.14c-2.05.094-2.887-.046-3.013-.467zM212.93 230.362c-.25-.427 3.168-3.939 8.087-8.352 7.92-7.118 10.963-12.195 10.963-18.46.042-4.128-1.042-6.927-3.835-10.06-1.917-2.135-3.335-3.273-12.547-9.775-8.087-5.741-12.839-11.91-14.131-18.459-1.084-5.172-.208-14.235 1.876-20.072 4.168-11.674 14.423-19.978 23.593-19.124 5.67.57 8.129 2.705 13.715 12.006 5.46 9.11 6.67 10.012 14.756 10.63 7.003.569 10.838 2.182 13.84 5.789 2.917 3.464 4.376 9.016 3.5 13.334-.875 4.365-3.626 7.545-10.67 12.243-.985.659-7.566 3.11-7.933 6.121-.688 5.657 5.344 13.581 4.64 17.368-2.315 12.431-11.639 23.063-7.688 20.377 6.356-4.358-31.975 12.359-32.205 12.582-2.626 2.515-5.586-5.437-5.96-6.148zM137.427 185.54c-3.017-1.206-5.029-5.287-4.264-8.627 1.368-5.751 6.839-7.792 10.54-3.942 2.816 2.922 3.057 7.003.644 10.204-2.012 2.643-4.265 3.432-6.92 2.365z"/>
                <path d="M251.982 141.457c-1.365-.86-1.982-1.973-1.982-3.694 0-3.44 3.788-5.06 5.947-2.53 1.453 1.67 1.41 3.542-.176 5.364-1.366 1.569-2.335 1.771-3.789.86z"/>
            </g>
            <g fill="#0093D4">
                <path d="M147.053 336.303c-.303-.905.758-1.671 1.555-1.114.758.557.341 1.811-.607 1.811-.38 0-.834-.348-.948-.697zM208.182 335.103c-.49-1.01-.532-1.195-.9-3.997-.122-.873-.286-2.205-.408-2.986a44.764 44.764 0 0 1-.409-3.17c-.123-.964-.286-1.883-.409-1.975-.122-.137-.04-.643.205-1.102.327-.735.899-.873 3.882-.873 3.76 0 4.373.413 3.515 2.435-.245.55-.45 1.332-.45 1.7 0 .367-.285 2.113-.612 3.812-.368 1.7-.613 3.262-.573 3.446.082.597-.858 2.756-1.39 3.123-1.062.781-1.961.597-2.451-.413zM280.18 335.9c-.798-.848.926-1.084 7.694-1.084h7.568l.084-11.167.126-11.214 5.466-.094c3.027-.048 7.651-.095 10.3-.142h4.877l1.892-3.628 1.891-3.675 2.733-.236c2.397-.188 2.69-.33 2.817-1.272.126-.99-.042-1.084-1.556-1.084-2.102 0-2.522-.707-1.26-2.167 1.26-1.508 3.194-1.508 3.74-.047.253.565.8 1.696 1.262 2.45.967 1.696 1.388 2.544 3.406 6.455l1.555 2.969.168 11.685c.126 8.152.042 11.78-.252 11.874-.883.283-52.258.66-52.51.377zM138.667 335.46c-.198-.337-.475-1.49-.554-2.642-.119-1.152-.277-2.401-.395-2.785-.238-.72-.633-5.283-.712-7.684-.04-1.153.04-1.2 3.124-1.297 1.74-.096 3.362-.048 3.599.048.316.144.356.865.118 2.546a187.532 187.532 0 0 0-.593 3.986c-.118.912-.277 2.209-.395 2.881-.119.672-.277 1.537-.317 1.921-.079.384-.237 1.056-.356 1.44a17.982 17.982 0 0 0-.355 1.393c-.198.865-2.61 1.009-3.164.192zM184.179 322.888c-2.332-.2-4.179-.6-4.179-1 0-.933 8.138-1.266 8.753-.333.836 1.266-.395 1.666-4.574 1.333zM106.086 321.365c-.082-.24-.123-20.904-.041-45.922l.082-45.443h25.852l.205 7.654c.123 4.21.123 13.92 0 21.525-.123 7.654-.164 14.35-.082 14.925.082.67.451 1.1 1.026 1.196 1.19.191 1.149 1.052-.041 1.243l-.903.144.123 21.765c.123 17.794.041 21.908-.41 22.673-.534.91-1.108.957-13.131.814-7.88-.048-12.598-.287-12.68-.574zM141.308 308.359c-.417-.83-.417-1.954.042-2.686.417-.782 17.822-.928 18.99-.196.752.489.877 1.759.293 2.882-.46.879-18.824.83-19.325 0zM161 307.5c0-.3-3.462-.5-9.5-.5s-9.5.2-9.5.5 3.462.5 9.5.5 9.5-.2 9.5-.5zM216.208 305.895c-.658-.195-4.15-.293-7.682-.244-3.738.098-6.572-.049-6.736-.342-.124-.245-.452-.294-.699-.098-.287.195-6.079.391-12.939.44l-12.446.098-.41-1.223c-.206-.684-.33-4.693-.288-8.898l.123-7.628H200.188l.123 5.476.123 5.525 8.708.098 8.709.147.123 3.129c.082 1.711-.041 3.276-.206 3.472-.164.195-.862.195-1.56.048zM90.157 303.828c-.339-.69-.085-3.584.34-3.814.508-.276.72 3.584.211 3.906-.212.138-.466.092-.55-.092zM160.457 301.872c-.031-.11-.063-.327-.094-.472-.032-.181-.159-.471-.285-.725-.126-.218-.095-.508.063-.617.316-.254.759.363.854 1.125.063.471-.474 1.088-.538.689zM141.308 298.359c-.417-.83-.417-1.954.042-2.686.417-.782 17.822-.928 18.99-.196.752.489.877 1.759.293 2.882-.46.879-18.824.83-19.325 0zM161 297.5c0-.3-3.462-.5-9.5-.5s-9.5.2-9.5.5 3.462.5 9.5.5 9.5-.2 9.5-.5zM160.064 292.793c-.123-.248-.061-.645.124-.794.248-.248.248-.546 0-.993-.216-.397-.216-.744-.03-.943.309-.298.742.497.835 1.539.092.843-.712 1.836-.929 1.19zM271.54 291.615c-.124-.293-.457-.39-.666-.195-.208.146-.625.097-.916-.147-.292-.243-.917-.487-1.458-.536-.542 0-1.583-.439-2.292-.926-1.374-.927-1.624-1.902-.5-1.804.334.049.917.097 1.25.146.333 0 1 .488 1.5 1.073.458.536.958.877 1.083.731.125-.146.625 0 1.125.293.458.34 1.208.585 1.583.585.417.048.75.292.75.536.042.683-1.125.878-1.458.244zM274.043 281.62c-.319-.521 1.235-1.913 1.713-1.565.318.174.318.522.04 1.13-.439.87-1.395 1.088-1.753.436zM261.037 276.55c-1.043-.296-3.297-.93-5.008-1.396-2.879-.761-3.13-.93-3.004-1.82.083-.55.292-1.141.459-1.31.334-.381 10.558 4.019 10.516 4.569 0 .55-.876.55-2.963-.043zM135.038 276.716c-.115-.18.04-.467.348-.575.348-.108.541-.36.425-.504-.27-.431.502-.827.966-.539.27.144.309.395.038.647a2.397 2.397 0 0 0-.386.791c0 .503-1.081.647-1.39.18zM137.105 276.742c-.165-.194-.124-.58.04-.871.165-.29.289-.678.289-.871 0-.242.205-.387.411-.339.247.049.37.242.288.532-.041.242.082.34.329.146a.568.568 0 0 0 .205-.726c-.41-.774 1.234-1.5 1.851-.823.411.484.494.436.288-.193-.288-1.016.535-2.033 1.151-1.403.33.338.905-.049 1.81-1.162.905-1.064 1.193-1.742.864-1.984-.617-.435.287-1.742 1.028-1.403.288.145.658 0 .822-.29.124-.29.082-.436-.123-.387-.247.096-.37-.049-.37-.339.04-.242.288-.435.534-.339a.774.774 0 0 0 .782-.387c.164-.29.04-.435-.288-.387-.74.194-.576-.532 1.151-4.161.823-1.742 1.645-3.097 1.81-2.952.205.145.493.049.617-.242.164-.29.123-.484-.083-.435-.822.193-.74-.29.7-4.258 1.069-2.903 1.768-4.21 2.18-4.113.328.048.698-.242.863-.63.123-.435.082-.628-.124-.483-.946.677-.699-.774.535-3.387.987-2.13 1.563-2.855 2.22-2.855.494 0 .905.194.864.435 0 .29-.288.436-.658.34-.329-.098-.493.048-.329.338.124.339 1.81.532 4.113.532 2.138 0 3.948.194 4.112.484.124.242-.658 2.661-1.768 5.42a540.666 540.666 0 0 0-3.743 9.58c-.945 2.516-2.22 5.806-2.837 7.258l-1.11 2.661-4.277.146c-2.674.096-4.442-.049-4.812-.388-.7-.725-1.604-.145-1.028.678.329.435 0 1.113-1.152 2.42-1.028 1.16-1.686 1.644-1.891 1.306-.37-.775-1.152-.097-.864.725.165.436-.452 1.065-1.81 1.888-2.261 1.354-2.22 1.354-2.59.919zM244.84 273.117c-6.519-2.148-7.542-2.597-6.476-3.097.81-.35 13.634 3.896 13.634 4.496.043.849-.511.699-7.158-1.399zM259.73 269.764c-2.502-.69-4.628-1.528-4.712-1.873-.083-.296.125-1.331.542-2.218 1.418-3.353 5.712-11.734 6.254-12.276 1.042-1.035 1.793-.05 2.293 3.007.5 2.958.5 2.958 1.793 2.712 1.667-.296 8.213-1.233 8.88-1.233.292 0 .709.444.96 1.035.833 1.775-.376 3.205-3.003 3.55-1.209.197-2.668.444-3.252.542-.583.148-1.834.395-2.835.592l-1.793.345.292 2.662c.417 4.141.417 4.29-.25 4.388-.333.05-2.668-.493-5.17-1.233zM217.066 258.295c-.374-.857.935-1.713 1.636-1.07.28.213.374.784.234 1.141-.374.857-1.496.857-1.87-.071zM214.053 257.303c-.303-.905.758-1.671 1.555-1.114.758.557.341 1.811-.607 1.811-.38 0-.834-.348-.948-.697zM245.059 256.547c-.083-.4-.083-1.066.027-1.466.137-.444.191-1.244.164-1.777-.027-.488.082-1.066.219-1.244.41-.355.684.933.438 1.91-.137.4-.192 1.2-.165 1.733.083 1.155-.465 1.777-.683.844z"/>
                <path d="M212.066 257.295c-.374-.857.935-1.713 1.636-1.07.28.213.374.784.234 1.141-.374.857-1.496.857-1.87-.071zM209.22 255.75c-.16-.183-.52-.365-.759-.365-.559 0-.638-2.235-.08-2.372.24-.091.4.319.4.866 0 .776.239 1.004.997 1.05.559 0 1.077.228 1.197.456.24.547-1.317.866-1.756.364zM208.094 251.608c-.278-.797.105-1.858.558-1.555.174.114.348.569.348.948 0 .948-.627 1.365-.906.607zM246.06 250.484c-.084-.437-.084-1.165.027-1.601.139-.486.194-1.213.167-1.699-.028-.436.083-.922.25-1.116.36-.388.666.97.388 1.796-.139.34-.194 1.116-.166 1.698.11 1.262-.445 1.99-.667.922zM244.066 247.295c-.374-.857.935-1.713 1.636-1.07.28.213.374.784.234 1.141-.374.857-1.496.857-1.87-.071zM241.052 245.602c-.128-.24-.426-.383-.639-.24-.298.24-8.812-1.004-10.174-1.483-.426-.143-.298-.574.51-1.77.554-.861 2.214-4.163 3.662-7.368 2.298-5.263 3.874-7.512 4.427-6.507.128.239.17 3.875.17 8.133-.085 6.842 0 7.8.596 7.8.383 0 .81.143.98.334.17.191.723.335 1.234.383.51 0 1.022.24 1.15.478.297.67-1.533.91-1.916.24zM209.07 242.404c-.264-.962.266-2.631.73-2.378.364.152.198 2.175-.232 2.833-.166.304-.365.101-.497-.455zM157.05 242.599c-.286-.66.712-1.52 1.852-1.585 1.044-.133 1.472.726.712 1.387-.807.726-2.28.792-2.565.198zM216.658 242.727c-.163-.215-.813-.377-1.423-.377-.61-.054-1.138-.27-1.22-.594-.162-.702.976-1.026 1.87-.486.366.216 1.016.378 1.382.432.407.054.732.324.732.594.04.647-.935.971-1.341.431zM158.02 239.877c-.076-.258.075-.877.328-1.342.278-.516.557-.67.632-.412.076.258-.075.877-.328 1.342-.278.516-.557.67-.632.412zM161.137 238.997c0-.05-.082-.55-.123-1.2-.082-.698.205-1.448.699-1.847.904-.75 1.726-.5 1.274.35-.165.349-.082.399.205.2.247-.2.37-.55.247-.8-.452-.9.534-.95 1.192-.05.657.85.575.949-1.398 2.148-1.11.7-2.055 1.249-2.096 1.199zM252.236 237.698c-3.169-.914-6.13-4.475-6.838-8.18-.834-4.57-.375-6.158 1.543-5.292.667.29.917.818.917 1.973.042.866.542 2.79 1.168 4.234 1.042 2.406 1.292 2.694 3.335 3.512 1.96.722 2.335.77 3.378.096.708-.433 1.459-1.443 1.876-2.694.625-1.78.792-1.924 1.834-1.636 1.71.481 1.877.914 1.126 2.935-1.584 4.378-4.461 6.11-8.339 5.052zM171.03 235.647c-.115-.17.114-.68.533-1.105.725-.723.8-.723 1.525 0 .725.723.8.723 1.487.043.42-.426.953-.638 1.182-.468.572.383.038 1.19-.61.893-.305-.128-.496 0-.42.255.039.255-.343.51-.876.51-.61 0-.915-.213-.84-.595.115-.468-.075-.425-.61.127-.8.808-1.067.893-1.372.34zM177.02 236.877c-.076-.258.075-.877.328-1.342.278-.516.557-.67.632-.412.076.258-.075.877-.328 1.342-.278.516-.557.67-.632.412zM191.433 235.19c-.481-.568-.561-.917-.24-1.135.52-.349 2.085 1.047 1.764 1.57-.32.612-.762.48-1.524-.435zM199.393 236.184c-.801-.993-.267-1.638.623-.794.356.298 1.646.595 2.848.595 1.157 0 2.136.199 2.136.497 0 .843-4.895.595-5.607-.298zM207.042 235.894c-.228-.73.53-2.386.859-1.753.177.341.126.73-.227 1.363-.253.439-.556.633-.632.39z"/>
                <path d="M164.066 235.295c-.374-.857.935-1.713 1.636-1.07.28.213.374.784.234 1.141-.374.857-1.496.857-1.87-.071zM167.093 234.715c-.348-.576.26-.753 2.17-.709.956 0 1.737.222 1.737.487 0 .531-3.603.708-3.907.222zM180.077 235.348c-.367-1.145.529-1.472 3.869-1.309 1.71.082 3.054.491 3.054.982 0 1.063-6.638 1.39-6.923.327zM210.091 234.736c-.157-.226-.104-.497.105-.587.627-.316 2.458-.09 2.772.316.366.497-2.51.768-2.877.271zM214.066 235.295c-.374-.857.935-1.713 1.636-1.07.28.213.374.784.234 1.141-.374.857-1.496.857-1.87-.071zM260.105 216.355c-.703-.48-1.24-1.048-1.075-1.267.207-.393 2.397.612 2.852 1.31.454.83-.455.787-1.777-.043zM261.993 215.635c-.292-.356-.501-.458-.501-.255 0 .204-.376.153-.836-.152-.46-.306-.752-.764-.627-1.069.167-.254.627-.204 1.17.153.502.356 1.045.61 1.212.661.502 0 .794.662.418.967-.209.153-.585 0-.836-.305zM257.044 212.603c-.323-.22-.897-.485-1.256-.573-.897-.132-1.077-.881-.287-1.013.861-.177 2.727 1.101 2.476 1.586-.251.53-.215.53-.933 0zM261.637 210.545c-.122-.247-.49-.346-.818-.148-.369.148-.901 0-1.229-.346-.327-.345-.614-.444-.614-.246 0 .197-.245.098-.573-.198-.286-.295-.86-.443-1.228-.246-.41.197-.737 0-.9-.493-.205-.641-.41-.69-.82-.247-.655.641-1.514.099-1.105-.69.164-.346 0-.346-.41.049-.736.74-1.678.345-1.227-.543.163-.345-.041-.295-.41.1-.41.394-.819.542-.982.344-.533-.64-.369-2.367.245-2.614.369-.147 2.211-1.134 4.135-2.219s3.89-1.973 4.38-1.973c.492 0 1.31-.542 1.802-1.183.86-1.085.983-1.135 1.638-.395.9.987 1.76 3.896 1.392 4.685-.164.296-.696.395-1.188.247-1.105-.345-1.555.05-2.21 1.874-.615 1.726-.492 1.874 1.35 2.022 1.966.148 2.089.444.778 1.677-1.228 1.134-1.637 1.282-2.006.543zM90.212 189.742c-.322-.515-.258-4.308.064-4.636.45-.374.612.188.708 2.529.097 1.92-.257 2.856-.772 2.107zM147.148 189.552c-.326-1.174-.072-4.552.362-4.552.507 0 .688 4.16.217 4.797-.253.343-.434.245-.58-.245zM118.05 186.394c-.128-.437 0-.874.297-1.092 1.063-.728 15.653 0 15.653.728 0 1.019-15.568 1.383-15.95.364z"/>
            </g>
            <g fill="#01AAF4">
                <path d="M168.554 374.566c-5.492-.896-6.823-1.556-7.946-4.055-.583-1.225-.54-1.414.333-2.404.54-.613 2.038-1.461 3.37-1.932 2.912-1.038 2.662-1.886-.666-2.357a107.612 107.612 0 0 1-2.995-.519c-.458-.094-2.122-.377-3.745-.707-6.573-1.179-9.277-2.593-10.442-5.374-.624-1.414-.624-1.65.042-3.064.915-2.074 3.494-3.206 9.319-4.054 3.411-.519 4.742-2.263 3.785-4.997-.416-1.084-.956-1.414-3.245-2.074-4.867-1.415-6.947-3.583-6.947-5.799 0-1.932 80.002-1.32 80.46 0 .25.755.124 1.462-.416 2.405-1.54 2.97-5.991 4.714-13.064 5.28-2.038.14-4.202.33-4.784.424-.582.094-2.163.33-3.536.518-4.743.66-6.449 2.263-5.617 5.185.541 1.792 2.996 3.677 5.617 4.196 2.58.566 5.783 2.876 6.573 4.761.374.943.707 2.169.707 2.781 0 1.226-1.373 2.876-2.038 2.405-.25-.142-.375 0-.208.377.79 2.31-10.526 6.788-20.635 8.155-1.04.141-2.164.33-2.496.424-2.871.896-16.808 1.179-21.426.425zM88.13 335.733c-.08-.19-.16-43.884-.12-97.056L88.05 142h2.776l.119 51.893c.079 51.324.079 87.53-.04 123.452l-.08 18.483-1.268.142c-.674.095-1.309-.048-1.427-.237zM140.124 334.668c-.36-.57.107-1.244.825-1.244.646 0 1.257-1.296 1.113-2.437-.036-.311.108-.726.287-.881.503-.467.898.726.467 1.348-.216.31-.287.881-.18 1.348.36 1.296-1.794 2.903-2.512 1.866z"/>
                <path d="M147.186 334.434c-.335-.377-.502-2.689-.502-7.312 0-3.727-.125-6.746-.292-6.746-.585 0-1.212.708-1.504 1.557-.334.943-1.128.66-1.128-.378 0-.518-.669-.66-2.8-.66-3.216.047-3.717.236-3.007 1.18.543.754.167 2.264-.502 1.84-.25-.19-.375-.708-.25-1.133.334-1.51-.627-2.17-3.05-2.17-1.838 0-2.256-.142-2.13-.708.125-.377.208-10.378.208-22.171l.042-21.465 2.549-.33c3.383-.424 6.475-2.217 9.274-5.425l2.214-2.594 4.512.047 4.512.094.668-1.792c.794-2.123 4.972-12.596 7.06-17.596l1.463-3.538-3.3-.142c-1.964-.094-3.551.095-3.886.378-.417.377-.626.377-.835 0-.418-.802 2.632-5.567 4.553-7.17.92-.708 2.298-1.558 3.134-1.84 1.002-.284 10.611-.425 28.032-.33l26.528.14.126 2.5c.167 2.926-.084 3.114-3.259 2.595-1.963-.33-2.298-.566-2.423-1.51l-.167-1.084-.627 1.038c-.418.66-.919.943-1.42.802-.627-.19-.794 0-.794.99 0 .66-.292 1.557-.627 2.029-.376.424-.71 1.51-.752 2.358-.041.897-.25 1.84-.417 2.123-.167.33-.042.66.292.802.418.189.46.802.167 2.972-.25 1.84-.209 2.783.084 3.02.25.188 2.256.565 4.512.943 2.214.33 4.386.802 4.804 1.038.668.377.71 1.415.627 13.727l-.126 13.303-5.64.095c-3.091.047-7.102.094-8.856.141h-3.217l-.125 1.793-.126 1.745-12.407.142-12.45.094v7.218c0 6.793.334 9.199 1.044 7.925.168-.33.46-.377.752-.142.669.566 8.022.614 9.275.095.627-.283 1.128-.283 1.253.047.25.377 4.261.377 5.431-.047.25-.095.92 0 1.588.188.71.236 1.337.19 1.713-.141.334-.33.71-.377.835-.142.209.425 1.922.378 3.635-.141.668-.189 1.253-.094 1.378.189.376.66 3.468.66 3.802.047.167-.283.501-.33.752-.142.71.52 7.311.613 8.439.142.668-.283 1.211-.142 2.047.613l1.128 1.038-.125 8.02-.126 8.019-5.848.141c-3.175.095-6.016.33-6.267.567-.292.283-.668.235-.96-.095-.377-.424-7.354-.566-28.075-.613h-27.573l-.041 3.066c-.042 1.699-.042 4.623.041 6.51.084 3.538-.334 4.812-1.629 4.812-.376 0-.919-.236-1.211-.566zm8.718-22.577c3.336-.06 4.096-.24 4.096-.959 0-.778-1.351-.898-9.5-.898-7.642 0-9.5.18-9.5.779 0 .479.084.958.169 1.078.127.12 2.533.18 5.404.12s7.051-.12 9.331-.12zm3.084-5.732c-.12-.824-.923-.927-9.074-1.081-8.713-.103-8.914-.103-8.914.926 0 .979.24 1.03 9.074 1.03 8.392 0 9.035-.051 8.914-.875zM160 301c0-.867-1.351-1-9.5-1-8.149 0-9.5.133-9.5 1s1.351 1 9.5 1c8.149 0 9.5-.133 9.5-1zm-1.012-4.875c-.12-.824-.923-.927-9.074-1.081-8.713-.103-8.914-.103-8.914.926 0 .979.24 1.03 9.074 1.03 8.392 0 9.035-.051 8.914-.875zM160 291c0-.867-1.351-1-9.5-1-8.149 0-9.5.133-9.5 1s1.351 1 9.5 1c8.149 0 9.5-.133 9.5-1zM207.708 335.742a3.249 3.249 0 0 1-.134-.488c-.044-.244-.223-.683-.4-.976-.447-.781.044-1.757.623-1.318.223.146.357.635.313 1.074-.09.634.133.78.98.683 1.294-.244 2.186-1.415 1.918-2.587-.134-.439 0-.976.223-1.122.268-.147.357-.732.223-1.22-.134-.488 0-1.074.223-1.22.268-.147.357-.733.223-1.22-.134-.489 0-1.074.268-1.27.713-.439 1.159 1.074.535 1.904-.268.341-.357.78-.223.927.178.147.134.683-.045 1.171-.223.489-.312 1.22-.267 1.709.044.439-.134.927-.357 1.073-.268.196-.357.635-.179 1.025.402 1.22-.758 2.245-2.363 2.099-.847-.049-1.56-.146-1.56-.244zM280.458 334.444c-.333-.429-.458-4.284-.458-11.614 0-10.185.042-11.09.791-12.184.458-.667 1-1.666 1.249-2.285.25-.619.874-2 1.457-3.046.541-1.047 1.207-2.333 1.457-2.856 2.83-5.997 3.289-6.33 5.245-3.903l1.416 1.761h11.198c12.78 0 11.49.524 11.906-4.76.167-1.665.375-3.236.458-3.427.125-.19-.041-.809-.375-1.38-.54-.857-.54-1.142 0-2.38.833-1.904 2.082-1.808 2.831.19.5 1.381.5 1.619-.208 2.476-.916 1.19-1.165 2.094-1.457 6.092l-.291 3.19h5.162c5.287 0 6.161.285 6.161 1.903 0 .428-.333 1.142-.75 1.57-.624.667-1.706.81-6.077.81-2.914 0-5.204.143-5.12.38.124.19 0 .857-.209 1.524-.375 1.142-.416 1.142-.957.333-.292-.524-.458-1.19-.333-1.523.166-.524-1.041-.714-6.411-.81-3.622-.095-8.201-.047-10.2.096l-3.621.238 1.248 2.046c.666 1.095 1.208 2.19 1.208 2.333 0 .19.291.666.624 1.094.5.62.625 2.904.625 12.613l.041 11.9-8.076.142c-6.328.096-8.201 0-8.534-.523zM289 302.93c0-1.28-.834-1.23-.959.098-.125.788.042 1.083.417.935.292-.147.542-.59.542-1.033zM333.148 331.558c-.326-.937-.073-2.64.361-2.555.217.043.398.596.47 1.235.145 1.362-.506 2.384-.831 1.32zM333.155 326.614c-.358-1.223-.036-15.708.36-15.614.502.189.681 15.19.215 15.802-.252.33-.431.235-.575-.188zM213.08 324.498c-.153-.453-.077-.996.152-1.267.306-.362.497-.317.688.271.153.453.077.996-.152 1.267-.306.362-.497.317-.688-.271z"/>
                <path d="M323.074 299.924c-.421-.447 1.053-1.924 1.895-1.924 1.053 0 1.432.85.505 1.164a8.252 8.252 0 0 0-1.431.626c-.38.224-.843.269-.969.134zM267.276 290.112c-1.909-.915-2.664-1.685-2.087-2.07.578-.386 5.107 2.022 4.796 2.551-.355.626-.533.578-2.709-.481zM222.325 287.408c-.116-.48-.116-1.068 0-1.228.086-.16.029-.64-.144-1.014-.375-.855-.116-2.563.317-2.082.173.213.288.747.26 1.227-.03.534.028 1.335.173 1.869.115.587.086 1.228-.087 1.548-.23.427-.375.374-.52-.32zM132.224 275.622c-.249-.476-.29-12.286-.125-37.191l.083-8.334 7.173-.143 7.13-.095v-20.143-20.572c.042-.238.083-10.953.125-23.81l.083-23.334h2.902V229.859h16.997c9.37 0 19.9.048 23.424.048 3.524 0 6.633 0 6.84-.048.374-.047 5.846 0 18.035.19l3.109.048V235.335l-27.155.239c-20.77.19-27.445.38-28.357.857-3.938 2-6.426 6.333-11.774 20.429-3.565 9.38-7.835 15.762-11.898 17.81-2.322 1.19-6.178 1.762-6.592.952zM245.037 271.884l-6.738-2.258-.245-3.843c-.122-2.642-.04-4.035.286-4.516.408-.528.612-.336 1.184 1.153.899 2.21 1.389 2.546 8.045 6.005 5.063 2.69 5.431 2.931 5.431 4.18 0 .817-.245 1.345-.613 1.393-.326.048-3.634-.913-7.35-2.114zM106.05 271.925c-.091-.195-.061-.778.121-1.263.244-.729.426-.826.67-.437.243.388.212.728-.122 1.263-.243.437-.548.631-.67.437zM106.08 268.498c-.153-.453-.077-.996.152-1.267.306-.362.497-.317.688.271.153.453.077.996-.152 1.267-.306.362-.497.317-.688-.271z"/>
                <path d="M147.06 265.921c-.174-.179.044-.85.48-1.477.437-.627 1.529-2.643 2.402-4.434.874-1.792 1.79-3.135 2.009-3 .218.134-.306 1.79-1.266 3.716-1.878 3.852-3.188 5.688-3.625 5.195zM251.783 266.423c-2.765-.766-3.219-1.484-3.673-5.79-.289-2.442-.66-3.973-1.073-4.308-.578-.479-.578-1.005 0-5.073.33-2.488.578-4.546.537-4.594-.042-.048-1.981-.479-4.334-.957l-4.291-.862.082-7.56c.083-4.978-.041-7.514-.33-7.323-.206.192-.495.096-.66-.191-.124-.287.04-.622.412-.766.454-.191.496-.479.248-.861-.537-.766.371-3.829 1.527-5.169 1.073-1.292 2.682-1.292 5.076 0 1.65.862 1.898 1.197 1.733 2.201-.371 2.154.702 6.461 2.022 8.232 1.61 2.105 2.972 2.919 5.53 3.302 2.765.383 4.622-.718 5.819-3.541.537-1.197 1.114-2.345 1.362-2.633.413-.478 2.724.144 5.158 1.388a50.085 50.085 0 0 0 3.384 1.436c1.569.574 2.518 1.292 3.384 2.584 1.156 1.675 1.28 2.202 1.486 6.557.206 4.642.454 8.949.784 14.787.165 2.776-.289 4.355-1.032 3.78-.206-.143-.165-.67.083-1.243.784-1.723-.041-1.915-5.406-1.149-2.806.43-5.2.622-5.365.526-.165-.143-.454-1.244-.619-2.488-.33-2.776-.495-3.063-1.238-2.728-.578.287-4.168 6.94-5.943 11.103-.99 2.201-1.279 2.297-4.663 1.34zM106.138 265.812c-.315-.652-.045-2.91.36-2.809.495.2.72 2.558.225 2.91-.225.15-.495.1-.585-.1zM106.13 258.621c-.318-.975 0-5.48.398-5.618.477-.14.676 5.572.198 5.943-.238.14-.477 0-.596-.325zM153.034 253.691c-.117-.206.077-1.184.465-2.214.427-1.03.738-2.008.777-2.265.077-1.082 1.28-3.45 1.59-3.193.234.206.156.927-.193 1.802-.35.876-.621 1.7-.621 1.906-.039.514-1.514 4.273-1.67 4.273-.038 0-.193-.154-.348-.309zM106.458 250.955c0-.087-.06-.955-.15-1.909-.06-.954-.18-1.952-.27-2.256-.18-.824.33-1.084.72-.39.36.65.3 3.904-.06 4.468-.12.13-.21.174-.24.087zM279.853 241.907c-1.119-1.09-2.038-3.02-3.755-7.972-.56-1.584-3.116-4.16-4.154-4.16-.8 0-1.239-.94-.72-1.584.68-.841 3.795 1.238 5.114 3.417 1.438 2.377 2.556 4.803 2.556 5.645 0 1.04 1.718 3.862 2.516 4.11.76.247.8 1.336.04 1.633-.2.05-.918-.396-1.597-1.09zM232.033 240.893c-.478-.57 4.386-11.263 4.945-10.883.359.285-3.709 10.408-4.347 10.883-.2.143-.478.143-.598 0z"/>
                <path d="M250.624 233.244c-.544-.528-.753-1.056-.544-1.218.209-.122.795.203 1.296.73.544.528.753 1.056.544 1.218-.209.122-.795-.203-1.296-.73zM128.082 230.714c-.3-.531.214-.753 1.715-.708.729.044 1.243.221 1.2.487-.128.531-2.615.709-2.915.221zM259.826 230.42c-.773-.352-1.015-.762-.677-1.173.628-.763 3.237.41 2.802 1.232-.338.704-.58.704-2.125-.059zM261.201 217.261c-1.987-1.115-2.46-1.806-2.081-2.869.189-.584.615-.531 2.507.266 2.508 1.063 2.791 1.488 1.94 2.763-.568.797-.757.797-2.366-.16zM255.571 213.71c-1.574-.436-1.947-1.161-1.201-2.128.538-.677.87-.726 1.822-.339 1.782.726 2.32 1.645 1.285 2.273-.456.29-.87.484-.953.484-.083-.048-.497-.193-.953-.29zM258.067 209.362c-3.2-.865-5.9-1.49-6.025-1.442-.125.096-1.703-.288-3.532-.817-1.828-.529-3.698-1.01-4.155-1.105-1.91-.385-5.816-1.73-6.149-2.115-.706-.817.457-1.01 2.66-.48 4.86 1.153 5.608 1.345 6.232 1.633.54.24.83-.288 1.33-2.5.498-2.066 1.163-3.316 2.368-4.71l1.62-1.826 4.28.577c6.149.865 7.645 1.634 8.933 4.566.415.961.498 1.49.166 1.875-.332.384-.582.096-.914-1.01-.54-1.778-.665-1.826-1.662-.769-.416.433-1.288.865-1.911.961-1.413.193-7.604 3.413-7.604 3.99 0 .673 10.72 3.46 11.052 2.884.125-.24.416-.337.623-.144.416.288-.747 2.163-1.246 2.066-.125-.048-2.867-.769-6.066-1.634zM117.058 184.59c-.126-.23-.042-.553.21-.737.252-.138.798-1.059 1.218-1.98.84-1.887 1.68-3.545 3.192-6.307.546-1.013 1.26-2.44 1.596-3.222.84-2.026 1.806-2.809 2.604-2.072.336.276.714.967.882 1.473.126.507.798 1.796 1.47 2.854.63 1.105 1.386 2.486 1.638 3.085.252.598.924 1.934 1.47 2.946 1.386 2.44 1.848 3.591 1.596 4.052-.252.46-15.582.414-15.876-.092zm12.294-3.906c-.93-1.843-2.155-4.146-2.746-5.113-.592-.968-1.14-1.981-1.225-2.257-.254-.783-1.099-.046-1.817 1.612-.338.829-1.014 2.119-1.479 2.856a32.132 32.132 0 0 0-1.521 2.994c-.38.875-.972 1.98-1.352 2.44-.592.738-.296.784 5.577.784H131l-1.648-3.316z"/>
            </g>
            <g fill="#94A4A6">
                <path d="M103.132 336.542c-.539-.748.62-1.418 2.65-1.497.745-.026 31.22-.039 91.426-.039 7.95 0 11.138.118 11.718.473.662.393.994.393 1.656 0 1.035-.591 10.807-.67 11.47-.04.497.473 42.732-.433 42.98-.04.331.513 5.88.513 6.211 0 .331-.511 18.882.395 34.74.395 16.811 0 25.962-.158 26.128-.394.373-.59 2.112-.473 2.65.157.331.394.331.63-.083.985-.786.59-231.174.63-231.546 0zM269.424 282.08c-2.206-.983-13.186-7.886-16.454-9.57-11.108-5.708-11.721-6.082-12.865-7.72-.694-.888-1.225-1.917-1.225-2.291 0-.328-.49-.796-1.102-1.076-.736-.328-.94-.608-.654-.936.286-.327 1.47-.234 3.798.234 1.838.421 3.513.749 3.676.749.163 0 .45-.936.572-2.106.286-2.011 1.552-3.789 2.328-3.274.163.14.449 1.871.572 3.883.49 5.66-.041 5.145 7.8 7.204 3.798.982 7.188 1.918 7.556 2.011.572.234.612-.093.286-2.62-.327-2.245-.286-2.993.163-3.461.409-.468 6.453-1.778 10.292-2.246.94-.093.94-.046 1.266 8.327.164 3.602.327 7.438.368 8.514.122 1.638.53 3.629-.368 4.378-1.674 1.45-3.845.982-6.01 0zM210.638 250.439c-2.264-1.379-2.868-1.957-2.566-2.49.151-.312.34-1.2.378-2.046.037-.8.377-1.867.716-2.312.566-.756.717-.756 1.245-.177.34.355 1.094 1.111 1.736 1.734.943.889 1.018 1.156.64 1.734-.339.444-.376.755-.075.978.227.133.265.533.114.8-.189.311-.302.934-.302 1.378 0 1.156-.528 1.245-1.886.4zM212.253 241.445c-.375-.475-.333-1.003.125-2.163.79-1.952 1.622-1.636 1.622.686 0 1.899-.832 2.638-1.747 1.477zM252.474 235.569c-1.5-.719-3.73-4.262-4.217-6.752-.568-2.73-.365-3.783.689-3.496.446.144 1.054-.143 1.5-.718.73-.91.69-.958-.608-1.388-.892-.24-1.42-.719-1.5-1.341-.528-4.07-1.014-5.938-1.501-5.938-1.176 0-1.176-.24.406-9.098.08-.383.162-.766.162-.814.094-.222 2.69 1.141 5.388 2.114 1.946.7 4.178.992 4.467 1.313 1.095 1.197-2.028 2.415-2.15 3.277-.243 2.442.285 2.777 2.028 1.245.933-.814 1.298-.91 2.028-.479 1.176.766 1.095 2.825-.162 5.028-1.054 1.82-1.379 4.74-.568 5.363.244.144.325.718.203 1.245-.081.575 0 2.155.203 3.64.487 3.016.04 4.835-1.582 6.32-1.054 1.005-3.244 1.197-4.786.479zM264.04 215.885c-.087-.18-.03-.721.145-1.262a7.293 7.293 0 0 0 .376-1.262c0-.226.087-.361.231-.361.174 0 .26.225.174.586 0 .045-.058.45-.116.947-.116 1.037-.55 1.758-.81 1.352z"/>
            </g>
            <path fill="#33CAFF" d="M208.504 297.873l-8.504-.224v-14.551l10.482-.09c7.476-.044 10.443.09 10.403.448-.079.269.435 3.358 1.108 6.85.633 3.493 1.107 6.627.989 6.94-.238.761-3.995.896-14.478.627zM219 290.988c0-.539-.356-.87-.978-.953-.755-.125-1.022.083-1.022.663 0 .414.133.912.311 1.077.578.54 1.689.042 1.689-.787z"/>
            <g fill="#014874">
                <path d="M113.455 332.095C112.787 328 112 322.19 112 321.43c0-.239 1.573-.429 3.5-.429h3.5l-.197 1.667c-.078.904-.393 2.857-.707 4.285-.276 1.429-.748 4.048-.984 5.858-.472 3.142-.51 3.19-1.77 3.19h-1.258l-.629-3.905zM182.971 335.247c-.241-.973-1.368-8.947-1.73-12.156L181 321h7l-.241 2.09c-.161 1.12-.684 4.474-1.167 7.392l-.885 5.348-1.247.146c-.926.098-1.328-.097-1.489-.729zM229.69 325.68c-.209-.281-.749-2.954-1.248-5.91-.831-5.205-1.413-8.347-2.702-15.242-.374-1.782-1.663-8.958-2.91-15.946-1.289-6.941-2.453-13.413-2.619-14.305-.499-2.298-.125-3.986 1.247-5.628 1.746-2.063 3.201-2.157 8.855-.469 2.702.845 5.529 1.689 6.194 1.876 1.704.516 15.63 4.737 23.488 7.13 3.534 1.078 7.774 2.579 9.354 3.33 1.62.75 3.741 1.36 4.78 1.406l1.871.094V286.659l-1.704.328c-2.079.423-4.656 1.595-5.654 2.627-.707.703-.873.703-2.203 0-.873-.47-1.539-.61-1.663-.282-.333.563 2.66 2.111 5.529 2.815l2.161.562v3.377c0 3.377 0 3.424-1.62 5.065-2.745 2.814-3.95 3.283-8.398 3.33-2.245.047-3.95-.093-3.825-.281.083-.235-.166-.375-.623-.375-1.33 0-5.904-1.83-9.978-4.034-3.284-1.735-7.732-4.784-12.97-8.958l-1.04-.844.998 1.876c2.204 4.221 3.368 10.553 3.326 18.291 0 6.191-.623 14.774-1.04 15.243-.581.61-7.191.844-7.607.281zM146.995 312.14c2.389-.186 6.397-.186 8.908 0 2.51.092.566.278-4.333.278-4.9 0-6.964-.186-4.575-.279zM310.185 310.503c.186-2.815-.231-2.603 4.729-2.39 1.808.106 2.086.265 2.086 1.328-.046 3.293-.325 3.559-3.801 3.559H310l.185-2.497zM91 302.045v-1.956l2.83.239c1.56.095 3.037.048 3.283-.143.492-.334.574-4.53.492-19.887-.04-3.624-.123-3.958-.861-3.958-.698 0-.82-.334-.82-2.146V272l5.455.143 5.416.143.123 2.718c.123 2.623.082 2.719-.985 2.862-1.6.19-1.723 1.288-.205 1.955l1.272.525V304H91v-1.955zM144.304 302.273c.66-.364 1.716-.364 2.42 0 .66.363.089.727-1.232.727-1.32 0-1.893-.364-1.188-.727zM156.23 302.273c.625-.364 1.737-.364 2.432 0 .73.363.243.727-1.112.727-1.32 0-1.912-.364-1.32-.727z"/>
                <path d="M156.294 301.273c.637-.364 1.762-.364 2.436 0 .638.363.113.727-1.237.727s-1.874-.364-1.2-.727zM156.201 292.23c.419-.307 1.162-.307 1.627 0 .419.462.047.77-.836.77-.884 0-1.256-.308-.79-.77zM146.995 291.14c2.389-.186 6.397-.186 8.908 0 2.51.092.566.278-4.333.278-4.9 0-6.964-.186-4.575-.279zM142.062 273.576c-.135-.27-.045-.65.226-.867.226-.163.452-.163.452.054 0 .163.361 0 .813-.38.632-.596.587-.542-.09.488-.994 1.356-1.04 1.356-1.4.705zM242.75 260.523c-1.684-.377-7.996-1.556-11.573-2.075-.673-.141-1.725-.33-2.23-.472-.547-.141-3.03-.565-5.47-.943-2.484-.33-6.734-1.037-9.511-1.509l-4.966-.849.252-2.546c.169-1.415.337-2.688.421-2.783.084-.094.758.189 1.515.613 1.894 1.085 2.146.425.421-1.226-.926-.849-1.178-1.273-.631-1.085.463.19 1.052.52 1.346.755.295.236.59.236.716-.047a.543.543 0 0 0-.168-.755c-.337-.236-.295-.566.084-1.037.547-.755.126-1.32-1.936-2.735-.505-.378-.631-.897-.42-2.217.252-1.51.42-1.745 1.177-1.556.463.141 4.209.754 8.248 1.415 4.04.66 10.395 1.697 14.098 2.358 3.703.66 8.248 1.461 10.1 1.744 1.851.283 3.534.66 3.703.85.168.188.042 2.216-.295 4.527-.336 2.31-.757 5.517-.884 7.168-.336 3.254-.294 3.254-3.997 2.405zm4.148-7.983c.128-.805.128-1.508.043-1.508-.043 0-7.51-1.357-16.546-3.016-8.994-1.659-16.588-3.016-16.758-3.016-.212 0-.254.251-.127.503.17.301.042.854-.212 1.256-.424.603-.382.804.042.955.637.252 7.212 1.508 19.05 3.62 4.072.703 8.866 1.608 10.605 1.96 1.74.351 3.31.653 3.437.703.17.05.382-.603.466-1.457zM91.939 246.858c-.776-.143-.939-.475-.939-1.805 0-1.947.286-2.041 5.51-2.231l3.674-.095.081-13.058c.041-7.17.082-13.627.082-14.34.04-1.329.082-1.329 2.694-1.329h2.653v5.698H111v10.968l-2.04-.332-2.042-.333-.04 5.65c0 3.135-.041 6.933-.082 8.5l-.082 2.849h-6.938c-3.796 0-7.347-.047-7.837-.142zM119.631 228.729a75.257 75.257 0 0 1-.43-3.438c-.158-1.177-.314-2.637-.393-3.297-.588-4.473-.901-7.77-.784-7.91.04-.095.706-.236 1.411-.33.745-.142 1.803-.33 2.352-.471l1.018-.283.863 7.205c.509 3.956.98 7.77 1.097 8.524L125 230h-2.586c-2.47 0-2.587-.047-2.783-1.271zM185.375 230.56c0-.289.17-.865.382-1.344.213-.432 1.318-3.071 2.465-5.854 2.89-6.958 4.463-10.7 6.248-14.827.85-1.967 1.53-3.647 1.53-3.743 0-.048-3.825-.144-8.5-.144s-8.5-.144-8.5-.336c0-.24.595-1.919 1.317-3.79l1.36-3.407 15.64-.096c8.628-.048 15.683 0 15.683.096s-.935 2.447-2.082 5.182c-1.148 2.735-2.72 6.622-3.57 8.589a762.454 762.454 0 0 1-3.613 8.637c-1.147 2.783-2.72 6.478-3.4 8.253l-1.275 3.167-6.843.048c-4.462.048-6.842-.096-6.842-.432zM91.252 189.798c-.126-.189-.252-.993-.252-1.845 0-1.609.545-2.082 2.476-2.082h1.132l-.042-11.924c0-10.316-.084-11.972-.629-11.972-.42 0-.671-.615-.755-1.988l-.126-1.94L105.81 158h12.713l-.084 1.656c-.167 2.082-.503 2.65-1.342 2.366-.672-.236-.714.71-.63 11.64.084 8.944.252 12.02.63 12.304.293.236 7.133.33 15.23.189 8.098-.142 14.937-.095 15.231.142.336.236.504 1.04.42 1.987l-.126 1.61-28.196.094c-15.482.047-28.28-.048-28.405-.19zm17.719-25.747c-.118-.906-.353-.992-2.467-1.036-3.447-.086-4.504.173-4.504 1.165 0 .734.313.82 3.564.82 3.446 0 3.524-.043 3.407-.95z"/>
            </g>
        </g>
    </g>
</svg>
